<?xml version="1.0" encoding="UTF-8" standalone="no"?>
<!-- Generator: Adobe Illustrator 25.4.1, SVG Export Plug-In . SVG Version: 6.00 Build 0)  -->

<svg
   xmlns:dc="http://purl.org/dc/elements/1.1/"
   xmlns:cc="http://creativecommons.org/ns#"
   xmlns:rdf="http://www.w3.org/1999/02/22-rdf-syntax-ns#"
   xmlns:svg="http://www.w3.org/2000/svg"
   xmlns="http://www.w3.org/2000/svg"
   xmlns:sodipodi="http://sodipodi.sourceforge.net/DTD/sodipodi-0.dtd"
   xmlns:inkscape="http://www.inkscape.org/namespaces/inkscape"
   version="1.1"
   x="0px"
   y="0px"
   viewBox="0 0 1421 365"
   xml:space="preserve"
   id="svg1072"
   sodipodi:docname="Kitware_Logo.svg"
   width="1421"
   height="365"
   inkscape:version="0.92.5 (2060ec1f9f, 2020-04-08)"><metadata
   id="metadata1078"><rdf:RDF><cc:Work
       rdf:about=""><dc:format>image/svg+xml</dc:format><dc:type
         rdf:resource="http://purl.org/dc/dcmitype/StillImage" /><dc:title></dc:title></cc:Work></rdf:RDF></metadata><defs
   id="defs1076" /><sodipodi:namedview
   pagecolor="#ffffff"
   bordercolor="#666666"
   borderopacity="1"
   objecttolerance="10"
   gridtolerance="10"
   guidetolerance="10"
   inkscape:pageopacity="0"
   inkscape:pageshadow="2"
   inkscape:window-width="1920"
   inkscape:window-height="1016"
   id="namedview1074"
   showgrid="false"
   inkscape:snap-page="true"
   inkscape:snap-bbox="true"
   inkscape:snap-bbox-edge-midpoints="true"
   inkscape:object-nodes="false"
   inkscape:zoom="0.4375"
   inkscape:cx="786.38685"
   inkscape:cy="-43.043433"
   inkscape:window-x="0"
   inkscape:window-y="27"
   inkscape:window-maximized="1"
   inkscape:current-layer="svg1072" />
<style
   type="text/css"
   id="style815">
	.st0{display:none;}
	.st1{display:inline;}
	.st2{fill:#8C8985;}
	.st3{display:inline;fill:none;stroke:#DCE3EC;stroke-width:7.416;stroke-miterlimit:10;}
	.st4{fill:#C7C7C6;}
	.st5{fill:#3EAE2B;}
	.st6{fill:#0068C7;}
	.st7{display:inline;fill:none;stroke:#C7C7C6;stroke-width:13.176;stroke-miterlimit:10;}
	.st8{display:inline;fill:none;stroke:#091812;stroke-width:7.416;stroke-miterlimit:10;}
</style>
<g
   id="Template"
   class="st0"
   style="display:none"
   transform="translate(0,120.8)">
	<g
   class="st1"
   id="g853"
   style="display:inline">
		<g
   id="g837">
			<g
   id="g835">
				<path
   class="st2"
   d="m 515,78.1 c -2.9,8.3 -5.5,16.1 -8.2,23.8 -6.6,18.9 -13.3,37.8 -19.7,56.8 -1.2,3.7 -2.8,5.2 -7,5 -8.3,-0.4 -8.3,-0.1 -11.1,-8.1 -6.2,-17.7 -12.4,-35.3 -18.7,-53 -0.4,-1.2 -1.1,-2.4 -1.9,-4.1 -4.2,11.7 -8.1,22.8 -12,33.8 -3.2,9.1 -6.6,18.2 -9.7,27.4 -0.9,2.8 -2.2,4 -5.3,3.9 -9.5,-0.2 -9.4,-0.1 -12.6,-9.2 -8.6,-24.8 -17.3,-49.7 -25.9,-74.5 -0.2,-0.5 -0.3,-1 -0.5,-1.7 4.4,0 8.6,0 13.1,0 7.6,22.2 15.2,44.4 23.2,67.6 2.5,-7.1 4.6,-13.2 6.7,-19.4 5.1,-14.9 10.3,-29.9 15.3,-44.9 0.9,-2.6 2,-3.7 5,-3.6 9.7,0.2 9.6,0.1 12.7,9.1 6.1,18.2 12.4,36.5 18.6,54.7 0.3,1 0.8,1.9 1.6,3.6 2.4,-7 4.7,-13.3 6.8,-19.6 5.1,-14.8 10.2,-29.6 15.1,-44.5 0.8,-2.4 1.8,-3.5 4.5,-3.3 3.1,0.4 6.2,0.2 10,0.2 z"
   id="path817"
   inkscape:connector-curvature="0"
   style="fill:#8c8985" />
				<path
   class="st2"
   d="m 725.7,147.6 c 0.6,3.8 1.2,7.6 1.9,11.7 -16.8,6.3 -33.6,8.7 -50.5,1.6 -10.1,-4.2 -15.5,-12.8 -17.9,-23.1 -2.9,-12.8 -2.7,-25.6 1.3,-38.2 3.8,-12.1 12,-19.6 24.4,-22.1 8.7,-1.8 17.6,-1.5 25.9,1.9 12.7,5.1 18.2,15.4 19.3,28.4 0.5,5.9 0.1,11.9 0.1,18.3 h -59.3 c -0.8,15.9 8.2,26 23.6,26.5 5.3,0.2 10.7,0 15.9,-0.9 4.9,-0.9 9.9,-2.6 15.3,-4.1 z m -54.9,-33 H 718 c 0,-20 -9.2,-26.5 -23.8,-26.5 -14.6,-0.1 -24,6.9 -23.4,26.5 z"
   id="path819"
   inkscape:connector-curvature="0"
   style="fill:#8c8985" />
				<path
   class="st2"
   d="m 529.6,91.7 c -0.2,-0.2 -0.3,-0.3 -0.4,-0.4 -2.8,-13.2 -4,-10.9 8.1,-13.2 9.9,-1.9 19.8,-2.3 29.6,0.1 12.7,3.1 20.1,11.8 20.3,25.1 0.2,18 0.1,36 0,54 0,1.1 -1,3 -1.8,3.2 -16.3,4.5 -32.8,7.2 -49.4,1.6 -11,-3.7 -16,-12.1 -15.7,-24.5 0.3,-11.4 6.3,-19.9 17.3,-22.5 7.1,-1.7 14.7,-1.9 22.1,-2.5 4.7,-0.3 9.5,-0.1 15.2,-0.1 -0.6,-5.2 -0.6,-10 -1.7,-14.5 -1.4,-5.6 -6.1,-7.7 -11.3,-8.7 -10.1,-1.8 -20.1,-0.7 -30,1.9 -0.8,0.2 -1.6,0.4 -2.3,0.5 z m 44.8,45.2 c 0,-3.9 0.1,-7.7 -0.1,-11.6 -0.1,-1 -1.4,-2.9 -2.1,-2.8 -9.3,0.3 -18.6,0.3 -27.8,1.6 -7.5,1 -11.3,7.1 -11.2,14.8 0.2,7.8 3.8,12.2 11.5,14 9,2.1 18,0.7 26.9,-0.8 1.6,-0.3 2.8,-1.8 2.7,-3.4 0,-4 0.1,-7.9 0.1,-11.8 z"
   id="path821"
   inkscape:connector-curvature="0"
   style="fill:#8c8985" />
				<path
   class="st2"
   d="m 371.5,78 v 12.1 h -34.1 c 0,2.3 0,4.3 0,6.2 0,13.9 -0.1,27.7 0.2,41.6 0.2,9.4 5.9,15 15.3,14.6 6,-0.2 12,-1.8 18,-2.8 0.8,-0.1 1.5,-0.3 2.4,-0.5 0.6,3.3 1.3,6.4 1.7,9.5 0.1,0.9 -0.6,2.5 -1.2,2.7 -11.3,4 -22.8,5.6 -34.3,1 -9.8,-3.9 -13.9,-12.2 -14.6,-22 -0.7,-9.2 -0.5,-18.4 -0.5,-27.6 -0.1,-17.6 0,-35.2 0,-52.8 0,-1.6 0,-3.1 0,-4.9 h 13 V 78 Z"
   id="path823"
   inkscape:connector-curvature="0"
   style="fill:#8c8985" />
				<path
   class="st2"
   d="m 206.4,42.4 c 3.6,0 7,-0.2 10.4,0.1 0.8,0.1 1.8,1.4 2.3,2.3 0.4,0.8 0.1,1.8 0.1,2.8 0,37 0,74 0,111 0,1.6 0,3.1 0,4.9 h -12.8 z"
   id="path825"
   inkscape:connector-curvature="0"
   style="fill:#8c8985" />
				<path
   class="st2"
   d="m 651.9,79 c -0.8,3.9 -1.5,7.6 -2.2,10.9 -6.3,-0.3 -12.3,-0.6 -18.4,-0.7 -2,0 -4,0.3 -5.9,0.6 -3.2,0.4 -4.5,2 -4.4,5.6 0.2,21.1 0.1,42.1 0.1,63.2 0,1.5 0,2.9 0,4.7 h -12.6 c -0.1,-1.2 -0.2,-2.5 -0.2,-3.8 0,-24.8 0.1,-49.6 -0.1,-74.4 0,-3.2 1.1,-4.4 4,-5.2 12.4,-3.4 24.8,-4.6 37.4,-1.8 0.6,0.3 1.4,0.6 2.3,0.9 z"
   id="path827"
   inkscape:connector-curvature="0"
   style="fill:#8c8985" />
				<path
   class="st2"
   d="m 278.6,163.6 c -5.7,0 -10.2,0.1 -14.7,-0.1 -1.1,0 -2.5,-0.8 -3.3,-1.7 -12.3,-14.1 -24.6,-28.3 -36.9,-42.5 -0.2,-0.2 -0.2,-0.5 -0.4,-1.1 5.6,-6.4 11.4,-13 17.1,-19.6 5.3,-6 10.5,-12.1 16,-18 1.1,-1.2 3.2,-2.2 4.8,-2.3 4.2,-0.3 8.4,-0.1 13.7,-0.1 -12.1,13.8 -23.6,27 -35.3,40.4 z"
   id="path829"
   inkscape:connector-curvature="0"
   style="fill:#8c8985" />
				<rect
   x="290.5"
   y="78.300003"
   class="st2"
   width="12.3"
   height="85.099998"
   id="rect831"
   style="fill:#8c8985" />
				<path
   class="st2"
   d="m 304.9,48.7 c 0,4.7 -3.6,8.2 -8.4,8.1 -4.7,0 -8.4,-3.7 -8.4,-8.2 0,-4.7 3.8,-8.5 8.7,-8.4 4.6,0.1 8.1,3.8 8.1,8.5 z"
   id="path833"
   inkscape:connector-curvature="0"
   style="fill:#8c8985" />
			</g>
		</g>
		<path
   class="st2"
   d="m 175.6,176 c -5.9,0 -10.6,0.1 -15.3,-0.1 -1.2,-0.1 -2.6,-0.9 -3.4,-1.8 -12.3,-14.3 -54.1,-62.8 -57.5,-66.7 -0.1,-0.2 -0.1,-0.4 0,-0.5 1.7,-1.9 12.4,-14.1 17.9,-20.5 5.6,-6.4 39.7,-45.3 45.4,-51.5 1.1,-1.2 3.2,-2.1 4.8,-2.2 4.4,-0.3 9.3,-0.1 14.7,-0.1 -12.6,14.4 -53.7,60.6 -65.9,74.5 13.5,15.5 45.3,52.7 59.3,68.9 z"
   id="path839"
   inkscape:connector-curvature="0"
   style="fill:#8c8985" />
		<g
   id="g847">
			<g
   id="g845">
				<path
   class="st2"
   d="m 93.9,101.9 c 16.2,-18.6 51.9,-59.4 60.9,-69.7 -5.4,0 -9.9,-0.2 -14.2,0.1 -1.7,0.1 -3.7,1 -4.8,2.2 -4.6,5 -39.3,44.7 -50.4,57.4 2.8,3.4 5.6,6.7 8.5,10 z"
   id="path841"
   inkscape:connector-curvature="0"
   style="fill:#8c8985" />
				<path
   class="st2"
   d="m 80.5,86.3 c 13.2,-15.1 40.6,-46.5 47.3,-54.1 -5.4,0 -9.9,-0.2 -14.2,0.1 -1.7,0.1 -3.7,1 -4.8,2.2 -3,3.3 -27,30.7 -36.8,41.8 2.7,3.3 5.5,6.6 8.5,10 z"
   id="path843"
   inkscape:connector-curvature="0"
   style="fill:#8c8985" />
			</g>
		</g>
		<path
   class="st2"
   d="m 71.8,118.9 v 20 c 13.7,16 27.8,32.3 30.4,35.3 0.8,0.9 2.2,1.7 3.4,1.8 4.7,0.2 9.4,0.1 15.3,0.1 -5.1,-5.9 -30.3,-35.3 -49.1,-57.2 z"
   id="path849"
   inkscape:connector-curvature="0"
   style="fill:#8c8985" />
		<path
   class="st2"
   d="m 71.8,87.4 v 20 c 20.1,23.3 51.8,60 57.6,66.7 0.8,0.9 2.2,1.7 3.4,1.8 4.7,0.2 9.4,0.1 15.3,0.1 C 139,165.4 91.8,110.6 71.8,87.4 Z"
   id="path851"
   inkscape:connector-curvature="0"
   style="fill:#8c8985" />
	</g>
	<polygon
   class="st3"
   points="1382.5,-5.6 1419.5,-47.1 1382.5,-88.5 1308.5,-88.5 1271.6,-47.1 1308.5,-5.6 "
   id="polygon855"
   style="display:inline;fill:none;stroke:#dce3ec;stroke-width:7.41599989;stroke-miterlimit:10" />
	<polygon
   class="st3"
   points="1505.7,-54.5 1542.6,-95.9 1505.7,-137.3 1431.7,-137.3 1394.7,-95.9 1431.7,-54.5 "
   id="polygon857"
   style="display:inline;fill:none;stroke:#dce3ec;stroke-width:7.41599989;stroke-miterlimit:10" />
	<polygon
   class="st3"
   points="1505.7,43.2 1542.6,1.8 1505.7,-39.7 1431.7,-39.7 1394.7,1.8 1431.7,43.2 "
   id="polygon859"
   style="display:inline;fill:none;stroke:#dce3ec;stroke-width:7.41599989;stroke-miterlimit:10" />
	<polygon
   class="st3"
   points="1629.2,-6 1666.1,-47.4 1629.2,-88.8 1555.2,-88.8 1518.2,-47.4 1555.2,-6 "
   id="polygon861"
   style="display:inline;fill:none;stroke:#dce3ec;stroke-width:7.41599989;stroke-miterlimit:10" />
	<polygon
   class="st3"
   points="1628.8,91.3 1665.8,49.9 1628.8,8.5 1554.8,8.5 1517.8,49.9 1554.8,91.3 "
   id="polygon863"
   style="display:inline;fill:none;stroke:#dce3ec;stroke-width:7.41599989;stroke-miterlimit:10" />
	<polygon
   class="st3"
   points="1752.3,43.2 1789.3,1.8 1752.3,-39.7 1678.4,-39.7 1641.4,1.8 1678.4,43.2 "
   id="polygon865"
   style="display:inline;fill:none;stroke:#dce3ec;stroke-width:7.41599989;stroke-miterlimit:10" />
	<polygon
   class="st3"
   points="1751.9,140 1788.9,98.6 1751.9,57.1 1678,57.1 1641,98.6 1678,140 "
   id="polygon867"
   style="display:inline;fill:none;stroke:#dce3ec;stroke-width:7.41599989;stroke-miterlimit:10" />
	<polygon
   class="st3"
   points="1876.2,92.1 1913.2,50.7 1876.2,9.2 1802.2,9.2 1765.3,50.7 1802.2,92.1 "
   id="polygon869"
   style="display:inline;fill:none;stroke:#dce3ec;stroke-width:7.41599989;stroke-miterlimit:10" />
	<polygon
   class="st3"
   points="1507.3,-151.8 1544.2,-193.2 1507.3,-234.6 1433.3,-234.6 1396.3,-193.2 1433.3,-151.8 "
   id="polygon871"
   style="display:inline;fill:none;stroke:#dce3ec;stroke-width:7.41599989;stroke-miterlimit:10" />
	<polygon
   class="st3"
   points="1630.4,-200.6 1667.4,-242 1630.4,-283.5 1556.4,-283.5 1519.5,-242 1556.4,-200.6 "
   id="polygon873"
   style="display:inline;fill:none;stroke:#dce3ec;stroke-width:7.41599989;stroke-miterlimit:10" />
	<polygon
   class="st3"
   points="1630.4,-103.3 1667.4,-144.7 1630.4,-186.2 1556.4,-186.2 1519.5,-144.7 1556.4,-103.3 "
   id="polygon875"
   style="display:inline;fill:none;stroke:#dce3ec;stroke-width:7.41599989;stroke-miterlimit:10" />
	<polygon
   class="st3"
   points="1753.9,-151.8 1790.9,-193.2 1753.9,-234.6 1679.9,-234.6 1643,-193.2 1679.9,-151.8 "
   id="polygon877"
   style="display:inline;fill:none;stroke:#dce3ec;stroke-width:7.41599989;stroke-miterlimit:10" />
	<polygon
   class="st3"
   points="1753.5,-54.1 1790.5,-95.5 1753.5,-136.9 1679.6,-136.9 1642.6,-95.5 1679.6,-54.1 "
   id="polygon879"
   style="display:inline;fill:none;stroke:#dce3ec;stroke-width:7.41599989;stroke-miterlimit:10" />
	<polygon
   class="st3"
   points="1877.1,-102.9 1914.1,-144.4 1877.1,-185.8 1803.1,-185.8 1766.1,-144.4 1803.1,-102.9 "
   id="polygon881"
   style="display:inline;fill:none;stroke:#dce3ec;stroke-width:7.41599989;stroke-miterlimit:10" />
	<polygon
   class="st3"
   points="1876.7,-6.1 1913.7,-47.6 1876.7,-89 1802.7,-89 1765.7,-47.6 1802.7,-6.1 "
   id="polygon883"
   style="display:inline;fill:none;stroke:#dce3ec;stroke-width:7.41599989;stroke-miterlimit:10" />
	<polygon
   class="st3"
   points="2001,-54.1 2038,-95.5 2001,-136.9 1927,-136.9 1890,-95.5 1927,-54.1 "
   id="polygon885"
   style="display:inline;fill:none;stroke:#dce3ec;stroke-width:7.41599989;stroke-miterlimit:10" />
	<polygon
   class="st3"
   points="1382.5,382.9 1419.5,341.4 1382.5,300 1308.5,300 1271.6,341.4 1308.5,382.9 "
   id="polygon887"
   style="display:inline;fill:none;stroke:#dce3ec;stroke-width:7.41599989;stroke-miterlimit:10" />
	<polygon
   class="st3"
   points="1505.7,334 1542.6,292.6 1505.7,251.2 1431.7,251.2 1394.7,292.6 1431.7,334 "
   id="polygon889"
   style="display:inline;fill:none;stroke:#dce3ec;stroke-width:7.41599989;stroke-miterlimit:10" />
	<polygon
   class="st3"
   points="1505.7,431.7 1542.6,390.3 1505.7,348.8 1431.7,348.8 1394.7,390.3 1431.7,431.7 "
   id="polygon891"
   style="display:inline;fill:none;stroke:#dce3ec;stroke-width:7.41599989;stroke-miterlimit:10" />
	<polygon
   class="st3"
   points="1629.2,383.3 1666.1,341.9 1629.2,300.4 1555.2,300.4 1518.2,341.9 1555.2,383.3 "
   id="polygon893"
   style="display:inline;fill:none;stroke:#dce3ec;stroke-width:7.41599989;stroke-miterlimit:10" />
	<polygon
   class="st3"
   points="1628.8,480.6 1665.8,439.2 1628.8,397.7 1554.8,397.7 1517.8,439.2 1554.8,480.6 "
   id="polygon895"
   style="display:inline;fill:none;stroke:#dce3ec;stroke-width:7.41599989;stroke-miterlimit:10" />
	<polygon
   class="st3"
   points="1752.3,431.7 1789.3,390.3 1752.3,348.8 1678.4,348.8 1641.4,390.3 1678.4,431.7 "
   id="polygon897"
   style="display:inline;fill:none;stroke:#dce3ec;stroke-width:7.41599989;stroke-miterlimit:10" />
	<polygon
   class="st3"
   points="1751.9,528.5 1788.9,487.1 1751.9,445.7 1678,445.7 1641,487.1 1678,528.5 "
   id="polygon899"
   style="display:inline;fill:none;stroke:#dce3ec;stroke-width:7.41599989;stroke-miterlimit:10" />
	<polygon
   class="st3"
   points="1876.2,480.6 1913.2,439.2 1876.2,397.7 1802.2,397.7 1765.3,439.2 1802.2,480.6 "
   id="polygon901"
   style="display:inline;fill:none;stroke:#dce3ec;stroke-width:7.41599989;stroke-miterlimit:10" />
	<polygon
   class="st3"
   points="1507.3,236.7 1544.2,195.3 1507.3,153.9 1433.3,153.9 1396.3,195.3 1433.3,236.7 "
   id="polygon903"
   style="display:inline;fill:none;stroke:#dce3ec;stroke-width:7.41599989;stroke-miterlimit:10" />
	<polygon
   class="st3"
   points="1630.4,188.7 1667.4,147.2 1630.4,105.8 1556.4,105.8 1519.5,147.2 1556.4,188.7 "
   id="polygon905"
   style="display:inline;fill:none;stroke:#dce3ec;stroke-width:7.41599989;stroke-miterlimit:10" />
	<polygon
   class="st3"
   points="1630.4,286 1667.4,244.5 1630.4,203.1 1556.4,203.1 1519.5,244.5 1556.4,286 "
   id="polygon907"
   style="display:inline;fill:none;stroke:#dce3ec;stroke-width:7.41599989;stroke-miterlimit:10" />
	<polygon
   class="st3"
   points="1753.9,236.7 1790.9,195.3 1753.9,153.9 1679.9,153.9 1643,195.3 1679.9,236.7 "
   id="polygon909"
   style="display:inline;fill:none;stroke:#dce3ec;stroke-width:7.41599989;stroke-miterlimit:10" />
	<polygon
   class="st3"
   points="1753.5,334.5 1790.5,293 1753.5,251.6 1679.6,251.6 1642.6,293 1679.6,334.5 "
   id="polygon911"
   style="display:inline;fill:none;stroke:#dce3ec;stroke-width:7.41599989;stroke-miterlimit:10" />
	<polygon
   class="st3"
   points="1876.5,188.3 1913.5,146.8 1876.5,105.4 1802.6,105.4 1765.6,146.8 1802.6,188.3 "
   id="polygon913"
   style="display:inline;fill:none;stroke:#dce3ec;stroke-width:7.41599989;stroke-miterlimit:10" />
	<polygon
   class="st3"
   points="1999.7,139.4 2036.7,98 1999.7,56.6 1925.7,56.6 1888.7,98 1925.7,139.4 "
   id="polygon915"
   style="display:inline;fill:none;stroke:#dce3ec;stroke-width:7.41599989;stroke-miterlimit:10" />
	<polygon
   class="st3"
   points="1999.7,43.9 2036.7,2.5 1999.7,-39 1925.7,-39 1888.7,2.5 1925.7,43.9 "
   id="polygon917"
   style="display:inline;fill:none;stroke:#dce3ec;stroke-width:7.41599989;stroke-miterlimit:10" />
	<polygon
   class="st3"
   points="1999.7,237.1 2036.7,195.7 1999.7,154.2 1925.7,154.2 1888.7,195.7 1925.7,237.1 "
   id="polygon919"
   style="display:inline;fill:none;stroke:#dce3ec;stroke-width:7.41599989;stroke-miterlimit:10" />
	<polygon
   class="st3"
   points="2123.2,188.3 2160.2,146.8 2123.2,105.4 2049.2,105.4 2012.2,146.8 2049.2,188.3 "
   id="polygon921"
   style="display:inline;fill:none;stroke:#dce3ec;stroke-width:7.41599989;stroke-miterlimit:10" />
	<polygon
   class="st3"
   points="2122.8,286 2159.8,244.6 2122.8,203.1 2048.9,203.1 2011.9,244.6 2048.9,286 "
   id="polygon923"
   style="display:inline;fill:none;stroke:#dce3ec;stroke-width:7.41599989;stroke-miterlimit:10" />
	<polygon
   class="st3"
   points="2246.4,237.1 2283.3,195.7 2246.4,154.2 2172.4,154.2 2135.4,195.7 2172.4,237.1 "
   id="polygon925"
   style="display:inline;fill:none;stroke:#dce3ec;stroke-width:7.41599989;stroke-miterlimit:10" />
	<polygon
   class="st3"
   points="2246,333.9 2282.9,292.5 2246,251 2172,251 2135,292.5 2172,333.9 "
   id="polygon927"
   style="display:inline;fill:none;stroke:#dce3ec;stroke-width:7.41599989;stroke-miterlimit:10" />
	<polygon
   class="st3"
   points="2124.4,91 2161.4,49.5 2124.4,8.1 2050.5,8.1 2013.5,49.5 2050.5,91 "
   id="polygon929"
   style="display:inline;fill:none;stroke:#dce3ec;stroke-width:7.41599989;stroke-miterlimit:10" />
	<polygon
   class="st3"
   points="2247.6,139.8 2284.6,98.4 2247.6,57 2173.6,57 2136.6,98.4 2173.6,139.8 "
   id="polygon931"
   style="display:inline;fill:none;stroke:#dce3ec;stroke-width:7.41599989;stroke-miterlimit:10" />
	<polygon
   class="st3"
   points="1877.1,285.6 1914.1,244.1 1877.1,202.7 1803.1,202.7 1766.1,244.1 1803.1,285.6 "
   id="polygon933"
   style="display:inline;fill:none;stroke:#dce3ec;stroke-width:7.41599989;stroke-miterlimit:10" />
	<polygon
   class="st3"
   points="1876.7,382.4 1913.7,341 1876.7,299.5 1802.7,299.5 1765.7,341 1802.7,382.4 "
   id="polygon935"
   style="display:inline;fill:none;stroke:#dce3ec;stroke-width:7.41599989;stroke-miterlimit:10" />
	<polygon
   class="st3"
   points="2001,334.5 2038,293 2001,251.6 1927,251.6 1890,293 1927,334.5 "
   id="polygon937"
   style="display:inline;fill:none;stroke:#dce3ec;stroke-width:7.41599989;stroke-miterlimit:10" />
	<g
   class="st1"
   id="g941"
   style="display:inline">
		<path
   class="st4"
   d="m 2075.1,-717.4 31.4,54.4 -31.4,54.4 h -62.9 l -31.4,-54.4 31.4,-54.4 h 62.9 m 7.6,-13.2 h -78.1 l -39,67.6 39,67.6 h 78.1 l 39,-67.6 z"
   id="path939"
   inkscape:connector-curvature="0"
   style="fill:#c7c7c6" />
	</g>
	<g
   class="st1"
   id="g945"
   style="display:inline">
		<path
   class="st4"
   d="m 2203.4,-792.3 31.4,54.4 -31.4,54.4 h -62.9 l -31.4,-54.4 31.4,-54.4 h 62.9 m 7.6,-13.1 h -78 l -39,67.6 39,67.6 h 78.1 l 39,-67.6 z"
   id="path943"
   inkscape:connector-curvature="0"
   style="fill:#c7c7c6" />
	</g>
	<g
   class="st1"
   id="g949"
   style="display:inline">
		<path
   class="st4"
   d="m 2329.6,-717.4 31.4,54.4 -31.4,54.4 h -62.9 l -31.4,-54.4 31.4,-54.4 h 62.9 m 7.6,-13.2 h -78.1 l -39,67.6 39,67.6 h 78.1 l 39,-67.6 z"
   id="path947"
   inkscape:connector-curvature="0"
   style="fill:#c7c7c6" />
	</g>
	<g
   class="st1"
   id="g953"
   style="display:inline">
		<path
   class="st4"
   d="m 2457.9,-792.3 31.4,54.4 -31.4,54.4 H 2395 l -31.4,-54.4 31.4,-54.4 h 62.9 m 7.6,-13.1 h -78.1 l -39,67.6 39,67.6 h 78.1 l 39,-67.6 z"
   id="path951"
   inkscape:connector-curvature="0"
   style="fill:#c7c7c6" />
	</g>
	<g
   class="st1"
   id="g957"
   style="display:inline">
		<path
   class="st4"
   d="m 2584.1,-717.4 31.4,54.4 -31.4,54.4 h -62.9 l -31.4,-54.4 31.4,-54.4 h 62.9 m 7.6,-13.2 h -78.1 l -39,67.6 39,67.6 h 78.1 l 39,-67.6 z"
   id="path955"
   inkscape:connector-curvature="0"
   style="fill:#c7c7c6" />
	</g>
	<g
   class="st1"
   id="g961"
   style="display:inline">
		<path
   class="st4"
   d="m 2712.4,-792.3 31.4,54.4 -31.4,54.4 h -62.9 l -31.4,-54.4 31.4,-54.4 h 62.9 m 7.6,-13.1 h -78 l -39,67.6 39,67.6 h 78.1 l 39,-67.6 z"
   id="path959"
   inkscape:connector-curvature="0"
   style="fill:#c7c7c6" />
	</g>
	<g
   class="st1"
   id="g965"
   style="display:inline">
		<path
   class="st4"
   d="m 2073,-569.8 31.4,54.4 -31.4,54.4 h -62.9 l -31.4,-54.4 31.4,-54.4 h 62.9 m 7.6,-13.2 h -78.1 l -39,67.6 39,67.6 h 78.1 l 39,-67.6 z"
   id="path963"
   inkscape:connector-curvature="0"
   style="fill:#c7c7c6" />
	</g>
	<g
   class="st1"
   id="g969"
   style="display:inline">
		<path
   class="st4"
   d="m 2201.3,-644.7 31.4,54.4 -31.4,54.4 h -62.9 l -31.4,-54.4 31.4,-54.4 h 62.9 m 7.6,-13.2 h -78.1 l -39,67.6 39,67.6 h 78.1 l 39,-67.6 z"
   id="path967"
   inkscape:connector-curvature="0"
   style="fill:#c7c7c6" />
	</g>
	<g
   class="st1"
   id="g973"
   style="display:inline">
		<path
   class="st4"
   d="m 2327.5,-569.8 31.4,54.4 -31.4,54.4 h -62.9 l -31.4,-54.4 31.4,-54.4 h 62.9 m 7.6,-13.2 H 2257 l -39,67.6 39,67.6 h 78.1 l 39,-67.6 z"
   id="path971"
   inkscape:connector-curvature="0"
   style="fill:#c7c7c6" />
	</g>
	<g
   class="st1"
   id="g977"
   style="display:inline">
		<path
   class="st4"
   d="m 2455.8,-644.7 31.4,54.4 -31.4,54.4 h -62.9 l -31.4,-54.4 31.4,-54.4 h 62.9 m 7.6,-13.2 h -78.1 l -39,67.6 39,67.6 h 78.1 l 39,-67.6 z"
   id="path975"
   inkscape:connector-curvature="0"
   style="fill:#c7c7c6" />
	</g>
	<g
   class="st1"
   id="g981"
   style="display:inline">
		<path
   class="st4"
   d="m 2582,-569.8 31.4,54.4 -31.4,54.4 h -62.9 l -31.4,-54.4 31.4,-54.4 h 62.9 m 7.6,-13.2 h -78.1 l -39,67.6 39,67.6 h 78.1 l 39,-67.6 z"
   id="path979"
   inkscape:connector-curvature="0"
   style="fill:#c7c7c6" />
	</g>
	<g
   class="st1"
   id="g985"
   style="display:inline">
		<path
   class="st4"
   d="m 2710.3,-644.7 31.4,54.4 -31.4,54.4 h -62.9 l -31.4,-54.4 31.4,-54.4 h 62.9 m 7.6,-13.2 h -78.1 l -39,67.6 39,67.6 h 78.1 l 39,-67.6 z"
   id="path983"
   inkscape:connector-curvature="0"
   style="fill:#c7c7c6" />
	</g>
	<g
   class="st1"
   id="g989"
   style="display:inline">
		<path
   class="st4"
   d="m 2327.5,-420.1 31.4,54.4 -31.4,54.4 h -62.9 l -31.4,-54.4 31.4,-54.4 h 62.9 m 7.6,-13.2 H 2257 l -39,67.6 39,67.6 h 78.1 l 39,-67.6 z"
   id="path987"
   inkscape:connector-curvature="0"
   style="fill:#c7c7c6" />
	</g>
	<g
   class="st1"
   id="g993"
   style="display:inline">
		<path
   class="st4"
   d="m 2455.8,-495 31.4,54.4 -31.4,54.4 h -62.9 l -31.4,-54.4 31.4,-54.4 h 62.9 m 7.6,-13.2 h -78.1 l -39,67.6 39,67.6 h 78.1 l 39,-67.6 z"
   id="path991"
   inkscape:connector-curvature="0"
   style="fill:#c7c7c6" />
	</g>
	<g
   class="st1"
   id="g997"
   style="display:inline">
		<path
   class="st4"
   d="m 2582,-420.1 31.4,54.4 -31.4,54.4 h -62.9 l -31.4,-54.4 31.4,-54.4 h 62.9 m 7.6,-13.2 h -78.1 l -39,67.6 39,67.6 h 78.1 l 39,-67.6 z"
   id="path995"
   inkscape:connector-curvature="0"
   style="fill:#c7c7c6" />
	</g>
	<g
   class="st1"
   id="g1001"
   style="display:inline">
		<path
   class="st4"
   d="m 2710.3,-495 31.4,54.4 -31.4,54.4 h -62.9 l -31.4,-54.4 31.4,-54.4 h 62.9 m 7.6,-13.2 h -78.1 l -39,67.6 39,67.6 h 78.1 l 39,-67.6 z"
   id="path999"
   inkscape:connector-curvature="0"
   style="fill:#c7c7c6" />
	</g>
	<g
   class="st1"
   id="g1005"
   style="display:inline">
		<path
   class="st4"
   d="m 2836.5,-420.1 31.4,54.4 -31.4,54.4 h -62.9 l -31.4,-54.4 31.4,-54.4 h 62.9 m 7.6,-13.2 H 2766 l -39,67.6 39,67.6 h 78.1 l 39,-67.6 z"
   id="path1003"
   inkscape:connector-curvature="0"
   style="fill:#c7c7c6" />
	</g>
	<g
   class="st1"
   id="g1009"
   style="display:inline">
		<path
   class="st4"
   d="m 2964.8,-495 31.4,54.4 -31.4,54.4 h -62.9 l -31.4,-54.4 31.4,-54.4 h 62.9 m 7.6,-13.2 h -78.1 l -39,67.6 39,67.6 h 78.1 l 39,-67.6 z"
   id="path1007"
   inkscape:connector-curvature="0"
   style="fill:#c7c7c6" />
	</g>
	<g
   class="st1"
   id="g1013"
   style="display:inline">
		<path
   class="st4"
   d="m 2325.3,-272.6 31.4,54.4 -31.4,54.4 h -62.9 l -31.4,-54.4 31.4,-54.4 h 62.9 m 7.6,-13.2 h -78.1 l -39,67.6 39,67.6 h 78.1 l 39,-67.6 z"
   id="path1011"
   inkscape:connector-curvature="0"
   style="fill:#c7c7c6" />
	</g>
	<g
   class="st1"
   id="g1017"
   style="display:inline">
		<path
   class="st4"
   d="m 2453.6,-347.4 31.4,54.4 -31.4,54.4 h -62.9 l -31.4,-54.4 31.4,-54.4 h 62.9 m 7.7,-13.2 h -78.1 l -39,67.6 39,67.6 h 78.1 l 39,-67.6 z"
   id="path1015"
   inkscape:connector-curvature="0"
   style="fill:#c7c7c6" />
	</g>
	<g
   class="st1"
   id="g1021"
   style="display:inline">
		<path
   class="st4"
   d="m 2579.8,-272.6 31.4,54.4 -31.4,54.4 H 2517 l -31.4,-54.4 31.4,-54.4 h 62.8 m 7.6,-13.2 h -78.1 l -39,67.6 39,67.6 h 78.1 l 39,-67.6 z"
   id="path1019"
   inkscape:connector-curvature="0"
   style="fill:#c7c7c6" />
	</g>
	<g
   class="st1"
   id="g1025"
   style="display:inline">
		<path
   class="st4"
   d="m 2708.1,-347.4 31.4,54.4 -31.4,54.4 h -62.9 l -31.4,-54.4 31.4,-54.4 h 62.9 m 7.6,-13.2 h -78.1 l -39,67.6 39,67.6 h 78.1 l 39,-67.6 z"
   id="path1023"
   inkscape:connector-curvature="0"
   style="fill:#c7c7c6" />
	</g>
	<g
   class="st1"
   id="g1029"
   style="display:inline">
		<path
   class="st4"
   d="m 2834.3,-272.6 31.4,54.4 -31.4,54.4 h -62.9 l -31.4,-54.4 31.4,-54.4 h 62.9 m 7.6,-13.2 h -78.1 l -39,67.6 39,67.6 h 78.1 l 39,-67.6 z"
   id="path1027"
   inkscape:connector-curvature="0"
   style="fill:#c7c7c6" />
	</g>
	<g
   class="st1"
   id="g1033"
   style="display:inline">
		<path
   class="st4"
   d="m 2962.6,-347.4 31.4,54.4 -31.4,54.4 h -62.9 l -31.4,-54.4 31.4,-54.4 h 62.9 m 7.6,-13.2 h -78.1 l -39,67.6 39,67.6 h 78.1 l 39,-67.6 z"
   id="path1031"
   inkscape:connector-curvature="0"
   style="fill:#c7c7c6" />
	</g>
</g>
<g
   id="Layer_3"
   transform="matrix(2.1631907,0,0,2.1631907,-148.82749,-81.134553)">
	<g
   id="g1062">
		<path
   class="st5"
   d="m 104.6,52.1 -35.8,40.5 8.7,10.1 47,-53.2 h -14.1 c -2.2,0 -4.3,0.9 -5.8,2.6 z"
   id="path1036"
   inkscape:connector-curvature="0"
   style="fill:#3eae2b" />
		<path
   class="st5"
   d="m 132.1,52.1 -49.7,56.2 8.7,10.1 60.9,-68.9 h -14.1 c -2.2,0 -4.4,0.9 -5.8,2.6 z"
   id="path1038"
   inkscape:connector-curvature="0"
   style="fill:#3eae2b" />
		<path
   class="st5"
   d="m 179.4,49.5 h -14 c -2.2,0 -4.4,1 -5.9,2.6 l -63.6,72 v 0 0 l 57.4,66.7 c 1.5,1.7 3.6,2.7 5.9,2.7 H 173 l -59.7,-69.3 z"
   id="path1040"
   inkscape:connector-curvature="0"
   style="fill:#3eae2b" />
		<path
   class="st6"
   d="M 118.7,193.5 68.8,135.6 v 20.2 l 30.2,35 c 1.5,1.7 3.6,2.7 5.9,2.7 z"
   id="path1042"
   inkscape:connector-curvature="0"
   style="fill:#0068c7" />
		<path
   class="st6"
   d="M 145.9,193.5 68.8,104 v 20.2 l 57.4,66.6 c 1.5,1.7 3.6,2.7 5.9,2.7 z"
   id="path1044"
   inkscape:connector-curvature="0"
   style="fill:#0068c7" />
		<g
   id="g1060">
			<path
   class="st6"
   d="m 203.8,60 h 13.1 v 122.8 h -13.1 z m 53.1,36 h 16.7 l -36,41 39.6,45.7 H 260.5 L 220.9,137 Z"
   id="path1046"
   inkscape:connector-curvature="0"
   style="fill:#0068c7" />
			<path
   class="st6"
   d="m 294,57.7 c 4.7,0 8.5,4 8.5,8.6 0,4.7 -3.8,8.5 -8.5,8.5 -4.9,0 -8.6,-3.8 -8.6,-8.5 0,-4.8 3.8,-8.6 8.6,-8.6 z M 287.4,96 h 13.1 v 86.8 h -13.1 z"
   id="path1048"
   inkscape:connector-curvature="0"
   style="fill:#0068c7" />
			<path
   class="st6"
   d="m 320.4,72.6 h 13.1 V 96 h 34.7 v 12.4 h -34.7 v 43.9 c 0,14.9 6.7,19.4 16.7,19.4 7.2,0 14.8,-1.8 19.8,-4.1 l 2,12.4 c -5.8,2.5 -13.7,4.1 -21.8,4.1 -17.5,0 -29.9,-8.1 -29.9,-31.9 V 72.6 Z"
   id="path1050"
   inkscape:connector-curvature="0"
   style="fill:#0068c7" />
			<path
   class="st6"
   d="m 414.9,165 23.6,-69 h 13.3 l 23.6,68.9 23.5,-68.9 h 13.5 l -30.2,86.8 h -13.5 l -23.6,-66.4 -23.6,66.4 H 408 L 377.8,96 h 13.5 z"
   id="path1052"
   inkscape:connector-curvature="0"
   style="fill:#0068c7" />
			<path
   class="st6"
   d="m 583.5,179.2 c -8.1,2.9 -20.9,5 -32.9,5 -20.9,0 -34.7,-7 -34.7,-26.6 0,-19.4 13.9,-26.8 37.4,-26.8 h 17.1 v -8.5 c 0,-11.9 -8.3,-15.7 -22,-15.7 -10.1,0 -18.4,1.8 -23.8,3.8 l -2,-12.1 c 7,-2 15.8,-3.8 26.3,-3.8 19.8,0 34.6,7.2 34.6,28.8 z m -13.1,-38 h -16.9 c -16,0 -24.5,4 -24.5,16.2 0,12.2 8.5,15.5 21.2,15.5 6.3,0 14.6,-0.7 20.2,-2.5 z"
   id="path1054"
   inkscape:connector-curvature="0"
   style="fill:#0068c7" />
			<path
   class="st6"
   d="m 603.6,99.6 c 5.8,-2.7 16.6,-4.9 27.2,-4.9 6.8,0 12.6,0.7 17.3,2.2 l -2.5,12.2 c -2.7,-1.1 -8.1,-2 -14.4,-2 -7.4,0 -11.3,0.9 -14.4,2.3 v 73.3 H 603.7 V 99.6 Z"
   id="path1056"
   inkscape:connector-curvature="0"
   style="fill:#0068c7" />
			<path
   class="st6"
   d="M 724.3,144.6 H 665 v 0.7 c 0,18.4 10.6,26.5 28.6,26.5 10.1,0 20.7,-2.5 27.2,-5.9 l 2,12.4 c -8.5,3.8 -18.7,5.9 -29.3,5.9 -27.7,0 -41.8,-13.9 -41.8,-44.6 0,-25 9.2,-45 37.6,-45 22.9,0 36.4,12.8 36.4,38 0,3.6 -0.4,8.2 -1.4,12 z M 665,133.5 h 48.1 v -1.1 c 0,-18.5 -9.4,-26.1 -24.1,-26.1 -14.6,0 -23.9,7.4 -23.9,26.1 v 1.1 z"
   id="path1058"
   inkscape:connector-curvature="0"
   style="fill:#0068c7" />
		</g>
	</g>
</g>
<g
   id="Layer_1"
   class="st0"
   style="display:none"
   transform="translate(0,120.8)">
	<line
   class="st7"
   x1="-456.70001"
   y1="60.700001"
   x2="-332.89999"
   y2="204.39999"
   id="line1065"
   style="display:inline;fill:none;stroke:#c7c7c6;stroke-width:13.17599964;stroke-miterlimit:10" />
	<line
   class="st8"
   x1="-420.70001"
   y1="164.89999"
   x2="-513"
   y2="57.700001"
   id="line1067"
   style="display:inline;fill:none;stroke:#091812;stroke-width:7.41599989;stroke-miterlimit:10" />
	<line
   class="st8"
   x1="-435.20001"
   y1="179.60001"
   x2="-527.5"
   y2="72.400002"
   id="line1069"
   style="display:inline;fill:none;stroke:#091812;stroke-width:7.41599989;stroke-miterlimit:10" />
</g>
</svg>