<?xml version="1.0" encoding="UTF-8" standalone="no"?>
<!-- Generator: Adobe Illustrator 25.4.1, SVG Export Plug-In . SVG Version: 6.00 Build 0)  -->

<svg
   xmlns:dc="http://purl.org/dc/elements/1.1/"
   xmlns:cc="http://creativecommons.org/ns#"
   xmlns:rdf="http://www.w3.org/1999/02/22-rdf-syntax-ns#"
   xmlns:svg="http://www.w3.org/2000/svg"
   xmlns="http://www.w3.org/2000/svg"
   xmlns:xlink="http://www.w3.org/1999/xlink"
   xmlns:sodipodi="http://sodipodi.sourceforge.net/DTD/sodipodi-0.dtd"
   xmlns:inkscape="http://www.inkscape.org/namespaces/inkscape"
   version="1.1"
   x="0px"
   y="0px"
   viewBox="0 0 201 204"
   xml:space="preserve"
   id="svg1072"
   sodipodi:docname="logo_slicer.svg"
   width="201"
   height="204"
   inkscape:version="0.92.5 (2060ec1f9f, 2020-04-08)"><metadata
   id="metadata1078"><rdf:RDF><cc:Work
       rdf:about=""><dc:format>image/svg+xml</dc:format><dc:type
         rdf:resource="http://purl.org/dc/dcmitype/StillImage" /><dc:title></dc:title></cc:Work></rdf:RDF></metadata><defs
   id="defs1076"><path
     d="m 261.1,348.7 c -28.4,0 -62.6,-3.3 -87.8,-6.6 -3.7,-27.6 -4.6,-57.5 -4.6,-89 0,-127 33.1,-231.8 75.1,-241.5 -127.4,6.9 -228.7,113.5 -228.7,244 0,135 108.3,244.4 242,244.4 129.1,0 234.5,-102.1 241.6,-230.6 -6.6,44.8 -112.7,79.3 -237.6,79.3 z"
     id="SVGID_1_"
     inkscape:connector-curvature="0" /></defs><sodipodi:namedview
   pagecolor="#ffffff"
   bordercolor="#666666"
   borderopacity="1"
   objecttolerance="10"
   gridtolerance="10"
   guidetolerance="10"
   inkscape:pageopacity="0"
   inkscape:pageshadow="2"
   inkscape:window-width="1920"
   inkscape:window-height="1016"
   id="namedview1074"
   showgrid="false"
   inkscape:snap-page="true"
   inkscape:snap-bbox="true"
   inkscape:snap-bbox-edge-midpoints="false"
   inkscape:object-nodes="false"
   inkscape:zoom="1.2374369"
   inkscape:cx="179.18791"
   inkscape:cy="107.05154"
   inkscape:window-x="0"
   inkscape:window-y="27"
   inkscape:window-maximized="1"
   inkscape:current-layer="svg1072"
   inkscape:bbox-nodes="true"
   inkscape:snap-global="true" />
<style
   type="text/css"
   id="style815">
	.st0{display:none;}
	.st1{display:inline;}
	.st2{fill:#8C8985;}
	.st3{display:inline;fill:none;stroke:#DCE3EC;stroke-width:7.416;stroke-miterlimit:10;}
	.st4{fill:#C7C7C6;}
	.st5{fill:#3EAE2B;}
	.st6{fill:#0068C7;}
	.st7{display:inline;fill:none;stroke:#C7C7C6;stroke-width:13.176;stroke-miterlimit:10;}
	.st8{display:inline;fill:none;stroke:#091812;stroke-width:7.416;stroke-miterlimit:10;}
</style>
<g
   id="Template"
   class="st0"
   style="display:none"
   transform="translate(0,-40.2)">
	<g
   class="st1"
   id="g853"
   style="display:inline">
		<g
   id="g837">
			<g
   id="g835">
				<path
   class="st2"
   d="m 515,78.1 c -2.9,8.3 -5.5,16.1 -8.2,23.8 -6.6,18.9 -13.3,37.8 -19.7,56.8 -1.2,3.7 -2.8,5.2 -7,5 -8.3,-0.4 -8.3,-0.1 -11.1,-8.1 -6.2,-17.7 -12.4,-35.3 -18.7,-53 -0.4,-1.2 -1.1,-2.4 -1.9,-4.1 -4.2,11.7 -8.1,22.8 -12,33.8 -3.2,9.1 -6.6,18.2 -9.7,27.4 -0.9,2.8 -2.2,4 -5.3,3.9 -9.5,-0.2 -9.4,-0.1 -12.6,-9.2 -8.6,-24.8 -17.3,-49.7 -25.9,-74.5 -0.2,-0.5 -0.3,-1 -0.5,-1.7 4.4,0 8.6,0 13.1,0 7.6,22.2 15.2,44.4 23.2,67.6 2.5,-7.1 4.6,-13.2 6.7,-19.4 5.1,-14.9 10.3,-29.9 15.3,-44.9 0.9,-2.6 2,-3.7 5,-3.6 9.7,0.2 9.6,0.1 12.7,9.1 6.1,18.2 12.4,36.5 18.6,54.7 0.3,1 0.8,1.9 1.6,3.6 2.4,-7 4.7,-13.3 6.8,-19.6 5.1,-14.8 10.2,-29.6 15.1,-44.5 0.8,-2.4 1.8,-3.5 4.5,-3.3 3.1,0.4 6.2,0.2 10,0.2 z"
   id="path817"
   inkscape:connector-curvature="0"
   style="fill:#8c8985" />
				<path
   class="st2"
   d="m 725.7,147.6 c 0.6,3.8 1.2,7.6 1.9,11.7 -16.8,6.3 -33.6,8.7 -50.5,1.6 -10.1,-4.2 -15.5,-12.8 -17.9,-23.1 -2.9,-12.8 -2.7,-25.6 1.3,-38.2 3.8,-12.1 12,-19.6 24.4,-22.1 8.7,-1.8 17.6,-1.5 25.9,1.9 12.7,5.1 18.2,15.4 19.3,28.4 0.5,5.9 0.1,11.9 0.1,18.3 h -59.3 c -0.8,15.9 8.2,26 23.6,26.5 5.3,0.2 10.7,0 15.9,-0.9 4.9,-0.9 9.9,-2.6 15.3,-4.1 z m -54.9,-33 H 718 c 0,-20 -9.2,-26.5 -23.8,-26.5 -14.6,-0.1 -24,6.9 -23.4,26.5 z"
   id="path819"
   inkscape:connector-curvature="0"
   style="fill:#8c8985" />
				<path
   class="st2"
   d="m 529.6,91.7 c -0.2,-0.2 -0.3,-0.3 -0.4,-0.4 -2.8,-13.2 -4,-10.9 8.1,-13.2 9.9,-1.9 19.8,-2.3 29.6,0.1 12.7,3.1 20.1,11.8 20.3,25.1 0.2,18 0.1,36 0,54 0,1.1 -1,3 -1.8,3.2 -16.3,4.5 -32.8,7.2 -49.4,1.6 -11,-3.7 -16,-12.1 -15.7,-24.5 0.3,-11.4 6.3,-19.9 17.3,-22.5 7.1,-1.7 14.7,-1.9 22.1,-2.5 4.7,-0.3 9.5,-0.1 15.2,-0.1 -0.6,-5.2 -0.6,-10 -1.7,-14.5 -1.4,-5.6 -6.1,-7.7 -11.3,-8.7 -10.1,-1.8 -20.1,-0.7 -30,1.9 -0.8,0.2 -1.6,0.4 -2.3,0.5 z m 44.8,45.2 c 0,-3.9 0.1,-7.7 -0.1,-11.6 -0.1,-1 -1.4,-2.9 -2.1,-2.8 -9.3,0.3 -18.6,0.3 -27.8,1.6 -7.5,1 -11.3,7.1 -11.2,14.8 0.2,7.8 3.8,12.2 11.5,14 9,2.1 18,0.7 26.9,-0.8 1.6,-0.3 2.8,-1.8 2.7,-3.4 0,-4 0.1,-7.9 0.1,-11.8 z"
   id="path821"
   inkscape:connector-curvature="0"
   style="fill:#8c8985" />
				<path
   class="st2"
   d="m 371.5,78 v 12.1 h -34.1 c 0,2.3 0,4.3 0,6.2 0,13.9 -0.1,27.7 0.2,41.6 0.2,9.4 5.9,15 15.3,14.6 6,-0.2 12,-1.8 18,-2.8 0.8,-0.1 1.5,-0.3 2.4,-0.5 0.6,3.3 1.3,6.4 1.7,9.5 0.1,0.9 -0.6,2.5 -1.2,2.7 -11.3,4 -22.8,5.6 -34.3,1 -9.8,-3.9 -13.9,-12.2 -14.6,-22 -0.7,-9.2 -0.5,-18.4 -0.5,-27.6 -0.1,-17.6 0,-35.2 0,-52.8 0,-1.6 0,-3.1 0,-4.9 h 13 V 78 Z"
   id="path823"
   inkscape:connector-curvature="0"
   style="fill:#8c8985" />
				<path
   class="st2"
   d="m 206.4,42.4 c 3.6,0 7,-0.2 10.4,0.1 0.8,0.1 1.8,1.4 2.3,2.3 0.4,0.8 0.1,1.8 0.1,2.8 0,37 0,74 0,111 0,1.6 0,3.1 0,4.9 h -12.8 z"
   id="path825"
   inkscape:connector-curvature="0"
   style="fill:#8c8985" />
				<path
   class="st2"
   d="m 651.9,79 c -0.8,3.9 -1.5,7.6 -2.2,10.9 -6.3,-0.3 -12.3,-0.6 -18.4,-0.7 -2,0 -4,0.3 -5.9,0.6 -3.2,0.4 -4.5,2 -4.4,5.6 0.2,21.1 0.1,42.1 0.1,63.2 0,1.5 0,2.9 0,4.7 h -12.6 c -0.1,-1.2 -0.2,-2.5 -0.2,-3.8 0,-24.8 0.1,-49.6 -0.1,-74.4 0,-3.2 1.1,-4.4 4,-5.2 12.4,-3.4 24.8,-4.6 37.4,-1.8 0.6,0.3 1.4,0.6 2.3,0.9 z"
   id="path827"
   inkscape:connector-curvature="0"
   style="fill:#8c8985" />
				<path
   class="st2"
   d="m 278.6,163.6 c -5.7,0 -10.2,0.1 -14.7,-0.1 -1.1,0 -2.5,-0.8 -3.3,-1.7 -12.3,-14.1 -24.6,-28.3 -36.9,-42.5 -0.2,-0.2 -0.2,-0.5 -0.4,-1.1 5.6,-6.4 11.4,-13 17.1,-19.6 5.3,-6 10.5,-12.1 16,-18 1.1,-1.2 3.2,-2.2 4.8,-2.3 4.2,-0.3 8.4,-0.1 13.7,-0.1 -12.1,13.8 -23.6,27 -35.3,40.4 z"
   id="path829"
   inkscape:connector-curvature="0"
   style="fill:#8c8985" />
				<rect
   x="290.5"
   y="78.300003"
   class="st2"
   width="12.3"
   height="85.099998"
   id="rect831"
   style="fill:#8c8985" />
				<path
   class="st2"
   d="m 304.9,48.7 c 0,4.7 -3.6,8.2 -8.4,8.1 -4.7,0 -8.4,-3.7 -8.4,-8.2 0,-4.7 3.8,-8.5 8.7,-8.4 4.6,0.1 8.1,3.8 8.1,8.5 z"
   id="path833"
   inkscape:connector-curvature="0"
   style="fill:#8c8985" />
			</g>
		</g>
		<path
   class="st2"
   d="m 175.6,176 c -5.9,0 -10.6,0.1 -15.3,-0.1 -1.2,-0.1 -2.6,-0.9 -3.4,-1.8 -12.3,-14.3 -54.1,-62.8 -57.5,-66.7 -0.1,-0.2 -0.1,-0.4 0,-0.5 1.7,-1.9 12.4,-14.1 17.9,-20.5 5.6,-6.4 39.7,-45.3 45.4,-51.5 1.1,-1.2 3.2,-2.1 4.8,-2.2 4.4,-0.3 9.3,-0.1 14.7,-0.1 -12.6,14.4 -53.7,60.6 -65.9,74.5 13.5,15.5 45.3,52.7 59.3,68.9 z"
   id="path839"
   inkscape:connector-curvature="0"
   style="fill:#8c8985" />
		<g
   id="g847">
			<g
   id="g845">
				<path
   class="st2"
   d="m 93.9,101.9 c 16.2,-18.6 51.9,-59.4 60.9,-69.7 -5.4,0 -9.9,-0.2 -14.2,0.1 -1.7,0.1 -3.7,1 -4.8,2.2 -4.6,5 -39.3,44.7 -50.4,57.4 2.8,3.4 5.6,6.7 8.5,10 z"
   id="path841"
   inkscape:connector-curvature="0"
   style="fill:#8c8985" />
				<path
   class="st2"
   d="m 80.5,86.3 c 13.2,-15.1 40.6,-46.5 47.3,-54.1 -5.4,0 -9.9,-0.2 -14.2,0.1 -1.7,0.1 -3.7,1 -4.8,2.2 -3,3.3 -27,30.7 -36.8,41.8 2.7,3.3 5.5,6.6 8.5,10 z"
   id="path843"
   inkscape:connector-curvature="0"
   style="fill:#8c8985" />
			</g>
		</g>
		<path
   class="st2"
   d="m 71.8,118.9 v 20 c 13.7,16 27.8,32.3 30.4,35.3 0.8,0.9 2.2,1.7 3.4,1.8 4.7,0.2 9.4,0.1 15.3,0.1 -5.1,-5.9 -30.3,-35.3 -49.1,-57.2 z"
   id="path849"
   inkscape:connector-curvature="0"
   style="fill:#8c8985" />
		<path
   class="st2"
   d="m 71.8,87.4 v 20 c 20.1,23.3 51.8,60 57.6,66.7 0.8,0.9 2.2,1.7 3.4,1.8 4.7,0.2 9.4,0.1 15.3,0.1 C 139,165.4 91.8,110.6 71.8,87.4 Z"
   id="path851"
   inkscape:connector-curvature="0"
   style="fill:#8c8985" />
	</g>
	<polygon
   class="st3"
   points="1271.6,-47.1 1308.5,-5.6 1382.5,-5.6 1419.5,-47.1 1382.5,-88.5 1308.5,-88.5 "
   id="polygon855"
   style="display:inline;fill:none;stroke:#dce3ec;stroke-width:7.41599989;stroke-miterlimit:10" />
	<polygon
   class="st3"
   points="1394.7,-95.9 1431.7,-54.5 1505.7,-54.5 1542.6,-95.9 1505.7,-137.3 1431.7,-137.3 "
   id="polygon857"
   style="display:inline;fill:none;stroke:#dce3ec;stroke-width:7.41599989;stroke-miterlimit:10" />
	<polygon
   class="st3"
   points="1394.7,1.8 1431.7,43.2 1505.7,43.2 1542.6,1.8 1505.7,-39.7 1431.7,-39.7 "
   id="polygon859"
   style="display:inline;fill:none;stroke:#dce3ec;stroke-width:7.41599989;stroke-miterlimit:10" />
	<polygon
   class="st3"
   points="1518.2,-47.4 1555.2,-6 1629.2,-6 1666.1,-47.4 1629.2,-88.8 1555.2,-88.8 "
   id="polygon861"
   style="display:inline;fill:none;stroke:#dce3ec;stroke-width:7.41599989;stroke-miterlimit:10" />
	<polygon
   class="st3"
   points="1517.8,49.9 1554.8,91.3 1628.8,91.3 1665.8,49.9 1628.8,8.5 1554.8,8.5 "
   id="polygon863"
   style="display:inline;fill:none;stroke:#dce3ec;stroke-width:7.41599989;stroke-miterlimit:10" />
	<polygon
   class="st3"
   points="1641.4,1.8 1678.4,43.2 1752.3,43.2 1789.3,1.8 1752.3,-39.7 1678.4,-39.7 "
   id="polygon865"
   style="display:inline;fill:none;stroke:#dce3ec;stroke-width:7.41599989;stroke-miterlimit:10" />
	<polygon
   class="st3"
   points="1641,98.6 1678,140 1751.9,140 1788.9,98.6 1751.9,57.1 1678,57.1 "
   id="polygon867"
   style="display:inline;fill:none;stroke:#dce3ec;stroke-width:7.41599989;stroke-miterlimit:10" />
	<polygon
   class="st3"
   points="1765.3,50.7 1802.2,92.1 1876.2,92.1 1913.2,50.7 1876.2,9.2 1802.2,9.2 "
   id="polygon869"
   style="display:inline;fill:none;stroke:#dce3ec;stroke-width:7.41599989;stroke-miterlimit:10" />
	<polygon
   class="st3"
   points="1396.3,-193.2 1433.3,-151.8 1507.3,-151.8 1544.2,-193.2 1507.3,-234.6 1433.3,-234.6 "
   id="polygon871"
   style="display:inline;fill:none;stroke:#dce3ec;stroke-width:7.41599989;stroke-miterlimit:10" />
	<polygon
   class="st3"
   points="1519.5,-242 1556.4,-200.6 1630.4,-200.6 1667.4,-242 1630.4,-283.5 1556.4,-283.5 "
   id="polygon873"
   style="display:inline;fill:none;stroke:#dce3ec;stroke-width:7.41599989;stroke-miterlimit:10" />
	<polygon
   class="st3"
   points="1519.5,-144.7 1556.4,-103.3 1630.4,-103.3 1667.4,-144.7 1630.4,-186.2 1556.4,-186.2 "
   id="polygon875"
   style="display:inline;fill:none;stroke:#dce3ec;stroke-width:7.41599989;stroke-miterlimit:10" />
	<polygon
   class="st3"
   points="1643,-193.2 1679.9,-151.8 1753.9,-151.8 1790.9,-193.2 1753.9,-234.6 1679.9,-234.6 "
   id="polygon877"
   style="display:inline;fill:none;stroke:#dce3ec;stroke-width:7.41599989;stroke-miterlimit:10" />
	<polygon
   class="st3"
   points="1642.6,-95.5 1679.6,-54.1 1753.5,-54.1 1790.5,-95.5 1753.5,-136.9 1679.6,-136.9 "
   id="polygon879"
   style="display:inline;fill:none;stroke:#dce3ec;stroke-width:7.41599989;stroke-miterlimit:10" />
	<polygon
   class="st3"
   points="1766.1,-144.4 1803.1,-102.9 1877.1,-102.9 1914.1,-144.4 1877.1,-185.8 1803.1,-185.8 "
   id="polygon881"
   style="display:inline;fill:none;stroke:#dce3ec;stroke-width:7.41599989;stroke-miterlimit:10" />
	<polygon
   class="st3"
   points="1765.7,-47.6 1802.7,-6.1 1876.7,-6.1 1913.7,-47.6 1876.7,-89 1802.7,-89 "
   id="polygon883"
   style="display:inline;fill:none;stroke:#dce3ec;stroke-width:7.41599989;stroke-miterlimit:10" />
	<polygon
   class="st3"
   points="1890,-95.5 1927,-54.1 2001,-54.1 2038,-95.5 2001,-136.9 1927,-136.9 "
   id="polygon885"
   style="display:inline;fill:none;stroke:#dce3ec;stroke-width:7.41599989;stroke-miterlimit:10" />
	<polygon
   class="st3"
   points="1271.6,341.4 1308.5,382.9 1382.5,382.9 1419.5,341.4 1382.5,300 1308.5,300 "
   id="polygon887"
   style="display:inline;fill:none;stroke:#dce3ec;stroke-width:7.41599989;stroke-miterlimit:10" />
	<polygon
   class="st3"
   points="1394.7,292.6 1431.7,334 1505.7,334 1542.6,292.6 1505.7,251.2 1431.7,251.2 "
   id="polygon889"
   style="display:inline;fill:none;stroke:#dce3ec;stroke-width:7.41599989;stroke-miterlimit:10" />
	<polygon
   class="st3"
   points="1394.7,390.3 1431.7,431.7 1505.7,431.7 1542.6,390.3 1505.7,348.8 1431.7,348.8 "
   id="polygon891"
   style="display:inline;fill:none;stroke:#dce3ec;stroke-width:7.41599989;stroke-miterlimit:10" />
	<polygon
   class="st3"
   points="1518.2,341.9 1555.2,383.3 1629.2,383.3 1666.1,341.9 1629.2,300.4 1555.2,300.4 "
   id="polygon893"
   style="display:inline;fill:none;stroke:#dce3ec;stroke-width:7.41599989;stroke-miterlimit:10" />
	<polygon
   class="st3"
   points="1517.8,439.2 1554.8,480.6 1628.8,480.6 1665.8,439.2 1628.8,397.7 1554.8,397.7 "
   id="polygon895"
   style="display:inline;fill:none;stroke:#dce3ec;stroke-width:7.41599989;stroke-miterlimit:10" />
	<polygon
   class="st3"
   points="1641.4,390.3 1678.4,431.7 1752.3,431.7 1789.3,390.3 1752.3,348.8 1678.4,348.8 "
   id="polygon897"
   style="display:inline;fill:none;stroke:#dce3ec;stroke-width:7.41599989;stroke-miterlimit:10" />
	<polygon
   class="st3"
   points="1641,487.1 1678,528.5 1751.9,528.5 1788.9,487.1 1751.9,445.7 1678,445.7 "
   id="polygon899"
   style="display:inline;fill:none;stroke:#dce3ec;stroke-width:7.41599989;stroke-miterlimit:10" />
	<polygon
   class="st3"
   points="1765.3,439.2 1802.2,480.6 1876.2,480.6 1913.2,439.2 1876.2,397.7 1802.2,397.7 "
   id="polygon901"
   style="display:inline;fill:none;stroke:#dce3ec;stroke-width:7.41599989;stroke-miterlimit:10" />
	<polygon
   class="st3"
   points="1396.3,195.3 1433.3,236.7 1507.3,236.7 1544.2,195.3 1507.3,153.9 1433.3,153.9 "
   id="polygon903"
   style="display:inline;fill:none;stroke:#dce3ec;stroke-width:7.41599989;stroke-miterlimit:10" />
	<polygon
   class="st3"
   points="1519.5,147.2 1556.4,188.7 1630.4,188.7 1667.4,147.2 1630.4,105.8 1556.4,105.8 "
   id="polygon905"
   style="display:inline;fill:none;stroke:#dce3ec;stroke-width:7.41599989;stroke-miterlimit:10" />
	<polygon
   class="st3"
   points="1519.5,244.5 1556.4,286 1630.4,286 1667.4,244.5 1630.4,203.1 1556.4,203.1 "
   id="polygon907"
   style="display:inline;fill:none;stroke:#dce3ec;stroke-width:7.41599989;stroke-miterlimit:10" />
	<polygon
   class="st3"
   points="1643,195.3 1679.9,236.7 1753.9,236.7 1790.9,195.3 1753.9,153.9 1679.9,153.9 "
   id="polygon909"
   style="display:inline;fill:none;stroke:#dce3ec;stroke-width:7.41599989;stroke-miterlimit:10" />
	<polygon
   class="st3"
   points="1642.6,293 1679.6,334.5 1753.5,334.5 1790.5,293 1753.5,251.6 1679.6,251.6 "
   id="polygon911"
   style="display:inline;fill:none;stroke:#dce3ec;stroke-width:7.41599989;stroke-miterlimit:10" />
	<polygon
   class="st3"
   points="1765.6,146.8 1802.6,188.3 1876.5,188.3 1913.5,146.8 1876.5,105.4 1802.6,105.4 "
   id="polygon913"
   style="display:inline;fill:none;stroke:#dce3ec;stroke-width:7.41599989;stroke-miterlimit:10" />
	<polygon
   class="st3"
   points="1888.7,98 1925.7,139.4 1999.7,139.4 2036.7,98 1999.7,56.6 1925.7,56.6 "
   id="polygon915"
   style="display:inline;fill:none;stroke:#dce3ec;stroke-width:7.41599989;stroke-miterlimit:10" />
	<polygon
   class="st3"
   points="1888.7,2.5 1925.7,43.9 1999.7,43.9 2036.7,2.5 1999.7,-39 1925.7,-39 "
   id="polygon917"
   style="display:inline;fill:none;stroke:#dce3ec;stroke-width:7.41599989;stroke-miterlimit:10" />
	<polygon
   class="st3"
   points="1888.7,195.7 1925.7,237.1 1999.7,237.1 2036.7,195.7 1999.7,154.2 1925.7,154.2 "
   id="polygon919"
   style="display:inline;fill:none;stroke:#dce3ec;stroke-width:7.41599989;stroke-miterlimit:10" />
	<polygon
   class="st3"
   points="2012.2,146.8 2049.2,188.3 2123.2,188.3 2160.2,146.8 2123.2,105.4 2049.2,105.4 "
   id="polygon921"
   style="display:inline;fill:none;stroke:#dce3ec;stroke-width:7.41599989;stroke-miterlimit:10" />
	<polygon
   class="st3"
   points="2011.9,244.6 2048.9,286 2122.8,286 2159.8,244.6 2122.8,203.1 2048.9,203.1 "
   id="polygon923"
   style="display:inline;fill:none;stroke:#dce3ec;stroke-width:7.41599989;stroke-miterlimit:10" />
	<polygon
   class="st3"
   points="2135.4,195.7 2172.4,237.1 2246.4,237.1 2283.3,195.7 2246.4,154.2 2172.4,154.2 "
   id="polygon925"
   style="display:inline;fill:none;stroke:#dce3ec;stroke-width:7.41599989;stroke-miterlimit:10" />
	<polygon
   class="st3"
   points="2135,292.5 2172,333.9 2246,333.9 2282.9,292.5 2246,251 2172,251 "
   id="polygon927"
   style="display:inline;fill:none;stroke:#dce3ec;stroke-width:7.41599989;stroke-miterlimit:10" />
	<polygon
   class="st3"
   points="2013.5,49.5 2050.5,91 2124.4,91 2161.4,49.5 2124.4,8.1 2050.5,8.1 "
   id="polygon929"
   style="display:inline;fill:none;stroke:#dce3ec;stroke-width:7.41599989;stroke-miterlimit:10" />
	<polygon
   class="st3"
   points="2136.6,98.4 2173.6,139.8 2247.6,139.8 2284.6,98.4 2247.6,57 2173.6,57 "
   id="polygon931"
   style="display:inline;fill:none;stroke:#dce3ec;stroke-width:7.41599989;stroke-miterlimit:10" />
	<polygon
   class="st3"
   points="1766.1,244.1 1803.1,285.6 1877.1,285.6 1914.1,244.1 1877.1,202.7 1803.1,202.7 "
   id="polygon933"
   style="display:inline;fill:none;stroke:#dce3ec;stroke-width:7.41599989;stroke-miterlimit:10" />
	<polygon
   class="st3"
   points="1765.7,341 1802.7,382.4 1876.7,382.4 1913.7,341 1876.7,299.5 1802.7,299.5 "
   id="polygon935"
   style="display:inline;fill:none;stroke:#dce3ec;stroke-width:7.41599989;stroke-miterlimit:10" />
	<polygon
   class="st3"
   points="1890,293 1927,334.5 2001,334.5 2038,293 2001,251.6 1927,251.6 "
   id="polygon937"
   style="display:inline;fill:none;stroke:#dce3ec;stroke-width:7.41599989;stroke-miterlimit:10" />
	<g
   class="st1"
   id="g941"
   style="display:inline">
		<path
   class="st4"
   d="m 2075.1,-717.4 31.4,54.4 -31.4,54.4 h -62.9 l -31.4,-54.4 31.4,-54.4 h 62.9 m 7.6,-13.2 h -78.1 l -39,67.6 39,67.6 h 78.1 l 39,-67.6 z"
   id="path939"
   inkscape:connector-curvature="0"
   style="fill:#c7c7c6" />
	</g>
	<g
   class="st1"
   id="g945"
   style="display:inline">
		<path
   class="st4"
   d="m 2203.4,-792.3 31.4,54.4 -31.4,54.4 h -62.9 l -31.4,-54.4 31.4,-54.4 h 62.9 m 7.6,-13.1 h -78 l -39,67.6 39,67.6 h 78.1 l 39,-67.6 z"
   id="path943"
   inkscape:connector-curvature="0"
   style="fill:#c7c7c6" />
	</g>
	<g
   class="st1"
   id="g949"
   style="display:inline">
		<path
   class="st4"
   d="m 2329.6,-717.4 31.4,54.4 -31.4,54.4 h -62.9 l -31.4,-54.4 31.4,-54.4 h 62.9 m 7.6,-13.2 h -78.1 l -39,67.6 39,67.6 h 78.1 l 39,-67.6 z"
   id="path947"
   inkscape:connector-curvature="0"
   style="fill:#c7c7c6" />
	</g>
	<g
   class="st1"
   id="g953"
   style="display:inline">
		<path
   class="st4"
   d="m 2457.9,-792.3 31.4,54.4 -31.4,54.4 H 2395 l -31.4,-54.4 31.4,-54.4 h 62.9 m 7.6,-13.1 h -78.1 l -39,67.6 39,67.6 h 78.1 l 39,-67.6 z"
   id="path951"
   inkscape:connector-curvature="0"
   style="fill:#c7c7c6" />
	</g>
	<g
   class="st1"
   id="g957"
   style="display:inline">
		<path
   class="st4"
   d="m 2584.1,-717.4 31.4,54.4 -31.4,54.4 h -62.9 l -31.4,-54.4 31.4,-54.4 h 62.9 m 7.6,-13.2 h -78.1 l -39,67.6 39,67.6 h 78.1 l 39,-67.6 z"
   id="path955"
   inkscape:connector-curvature="0"
   style="fill:#c7c7c6" />
	</g>
	<g
   class="st1"
   id="g961"
   style="display:inline">
		<path
   class="st4"
   d="m 2712.4,-792.3 31.4,54.4 -31.4,54.4 h -62.9 l -31.4,-54.4 31.4,-54.4 h 62.9 m 7.6,-13.1 h -78 l -39,67.6 39,67.6 h 78.1 l 39,-67.6 z"
   id="path959"
   inkscape:connector-curvature="0"
   style="fill:#c7c7c6" />
	</g>
	<g
   class="st1"
   id="g965"
   style="display:inline">
		<path
   class="st4"
   d="m 2073,-569.8 31.4,54.4 -31.4,54.4 h -62.9 l -31.4,-54.4 31.4,-54.4 h 62.9 m 7.6,-13.2 h -78.1 l -39,67.6 39,67.6 h 78.1 l 39,-67.6 z"
   id="path963"
   inkscape:connector-curvature="0"
   style="fill:#c7c7c6" />
	</g>
	<g
   class="st1"
   id="g969"
   style="display:inline">
		<path
   class="st4"
   d="m 2201.3,-644.7 31.4,54.4 -31.4,54.4 h -62.9 l -31.4,-54.4 31.4,-54.4 h 62.9 m 7.6,-13.2 h -78.1 l -39,67.6 39,67.6 h 78.1 l 39,-67.6 z"
   id="path967"
   inkscape:connector-curvature="0"
   style="fill:#c7c7c6" />
	</g>
	<g
   class="st1"
   id="g973"
   style="display:inline">
		<path
   class="st4"
   d="m 2327.5,-569.8 31.4,54.4 -31.4,54.4 h -62.9 l -31.4,-54.4 31.4,-54.4 h 62.9 m 7.6,-13.2 H 2257 l -39,67.6 39,67.6 h 78.1 l 39,-67.6 z"
   id="path971"
   inkscape:connector-curvature="0"
   style="fill:#c7c7c6" />
	</g>
	<g
   class="st1"
   id="g977"
   style="display:inline">
		<path
   class="st4"
   d="m 2455.8,-644.7 31.4,54.4 -31.4,54.4 h -62.9 l -31.4,-54.4 31.4,-54.4 h 62.9 m 7.6,-13.2 h -78.1 l -39,67.6 39,67.6 h 78.1 l 39,-67.6 z"
   id="path975"
   inkscape:connector-curvature="0"
   style="fill:#c7c7c6" />
	</g>
	<g
   class="st1"
   id="g981"
   style="display:inline">
		<path
   class="st4"
   d="m 2582,-569.8 31.4,54.4 -31.4,54.4 h -62.9 l -31.4,-54.4 31.4,-54.4 h 62.9 m 7.6,-13.2 h -78.1 l -39,67.6 39,67.6 h 78.1 l 39,-67.6 z"
   id="path979"
   inkscape:connector-curvature="0"
   style="fill:#c7c7c6" />
	</g>
	<g
   class="st1"
   id="g985"
   style="display:inline">
		<path
   class="st4"
   d="m 2710.3,-644.7 31.4,54.4 -31.4,54.4 h -62.9 l -31.4,-54.4 31.4,-54.4 h 62.9 m 7.6,-13.2 h -78.1 l -39,67.6 39,67.6 h 78.1 l 39,-67.6 z"
   id="path983"
   inkscape:connector-curvature="0"
   style="fill:#c7c7c6" />
	</g>
	<g
   class="st1"
   id="g989"
   style="display:inline">
		<path
   class="st4"
   d="m 2327.5,-420.1 31.4,54.4 -31.4,54.4 h -62.9 l -31.4,-54.4 31.4,-54.4 h 62.9 m 7.6,-13.2 H 2257 l -39,67.6 39,67.6 h 78.1 l 39,-67.6 z"
   id="path987"
   inkscape:connector-curvature="0"
   style="fill:#c7c7c6" />
	</g>
	<g
   class="st1"
   id="g993"
   style="display:inline">
		<path
   class="st4"
   d="m 2455.8,-495 31.4,54.4 -31.4,54.4 h -62.9 l -31.4,-54.4 31.4,-54.4 h 62.9 m 7.6,-13.2 h -78.1 l -39,67.6 39,67.6 h 78.1 l 39,-67.6 z"
   id="path991"
   inkscape:connector-curvature="0"
   style="fill:#c7c7c6" />
	</g>
	<g
   class="st1"
   id="g997"
   style="display:inline">
		<path
   class="st4"
   d="m 2582,-420.1 31.4,54.4 -31.4,54.4 h -62.9 l -31.4,-54.4 31.4,-54.4 h 62.9 m 7.6,-13.2 h -78.1 l -39,67.6 39,67.6 h 78.1 l 39,-67.6 z"
   id="path995"
   inkscape:connector-curvature="0"
   style="fill:#c7c7c6" />
	</g>
	<g
   class="st1"
   id="g1001"
   style="display:inline">
		<path
   class="st4"
   d="m 2710.3,-495 31.4,54.4 -31.4,54.4 h -62.9 l -31.4,-54.4 31.4,-54.4 h 62.9 m 7.6,-13.2 h -78.1 l -39,67.6 39,67.6 h 78.1 l 39,-67.6 z"
   id="path999"
   inkscape:connector-curvature="0"
   style="fill:#c7c7c6" />
	</g>
	<g
   class="st1"
   id="g1005"
   style="display:inline">
		<path
   class="st4"
   d="m 2836.5,-420.1 31.4,54.4 -31.4,54.4 h -62.9 l -31.4,-54.4 31.4,-54.4 h 62.9 m 7.6,-13.2 H 2766 l -39,67.6 39,67.6 h 78.1 l 39,-67.6 z"
   id="path1003"
   inkscape:connector-curvature="0"
   style="fill:#c7c7c6" />
	</g>
	<g
   class="st1"
   id="g1009"
   style="display:inline">
		<path
   class="st4"
   d="m 2964.8,-495 31.4,54.4 -31.4,54.4 h -62.9 l -31.4,-54.4 31.4,-54.4 h 62.9 m 7.6,-13.2 h -78.1 l -39,67.6 39,67.6 h 78.1 l 39,-67.6 z"
   id="path1007"
   inkscape:connector-curvature="0"
   style="fill:#c7c7c6" />
	</g>
	<g
   class="st1"
   id="g1013"
   style="display:inline">
		<path
   class="st4"
   d="m 2325.3,-272.6 31.4,54.4 -31.4,54.4 h -62.9 l -31.4,-54.4 31.4,-54.4 h 62.9 m 7.6,-13.2 h -78.1 l -39,67.6 39,67.6 h 78.1 l 39,-67.6 z"
   id="path1011"
   inkscape:connector-curvature="0"
   style="fill:#c7c7c6" />
	</g>
	<g
   class="st1"
   id="g1017"
   style="display:inline">
		<path
   class="st4"
   d="m 2453.6,-347.4 31.4,54.4 -31.4,54.4 h -62.9 l -31.4,-54.4 31.4,-54.4 h 62.9 m 7.7,-13.2 h -78.1 l -39,67.6 39,67.6 h 78.1 l 39,-67.6 z"
   id="path1015"
   inkscape:connector-curvature="0"
   style="fill:#c7c7c6" />
	</g>
	<g
   class="st1"
   id="g1021"
   style="display:inline">
		<path
   class="st4"
   d="m 2579.8,-272.6 31.4,54.4 -31.4,54.4 H 2517 l -31.4,-54.4 31.4,-54.4 h 62.8 m 7.6,-13.2 h -78.1 l -39,67.6 39,67.6 h 78.1 l 39,-67.6 z"
   id="path1019"
   inkscape:connector-curvature="0"
   style="fill:#c7c7c6" />
	</g>
	<g
   class="st1"
   id="g1025"
   style="display:inline">
		<path
   class="st4"
   d="m 2708.1,-347.4 31.4,54.4 -31.4,54.4 h -62.9 l -31.4,-54.4 31.4,-54.4 h 62.9 m 7.6,-13.2 h -78.1 l -39,67.6 39,67.6 h 78.1 l 39,-67.6 z"
   id="path1023"
   inkscape:connector-curvature="0"
   style="fill:#c7c7c6" />
	</g>
	<g
   class="st1"
   id="g1029"
   style="display:inline">
		<path
   class="st4"
   d="m 2834.3,-272.6 31.4,54.4 -31.4,54.4 h -62.9 l -31.4,-54.4 31.4,-54.4 h 62.9 m 7.6,-13.2 h -78.1 l -39,67.6 39,67.6 h 78.1 l 39,-67.6 z"
   id="path1027"
   inkscape:connector-curvature="0"
   style="fill:#c7c7c6" />
	</g>
	<g
   class="st1"
   id="g1033"
   style="display:inline">
		<path
   class="st4"
   d="m 2962.6,-347.4 31.4,54.4 -31.4,54.4 h -62.9 l -31.4,-54.4 31.4,-54.4 h 62.9 m 7.6,-13.2 h -78.1 l -39,67.6 39,67.6 h 78.1 l 39,-67.6 z"
   id="path1031"
   inkscape:connector-curvature="0"
   style="fill:#c7c7c6" />
	</g>
</g>

<g
   id="Layer_1"
   class="st0"
   style="display:none"
   transform="translate(0,-40.2)">
	<line
   class="st7"
   x1="-456.70001"
   y1="60.700001"
   x2="-332.89999"
   y2="204.39999"
   id="line1065"
   style="display:inline;fill:none;stroke:#c7c7c6;stroke-width:13.17599964;stroke-miterlimit:10" />
	<line
   class="st8"
   x1="-420.70001"
   y1="164.89999"
   x2="-513"
   y2="57.700001"
   id="line1067"
   style="display:inline;fill:none;stroke:#091812;stroke-width:7.41599989;stroke-miterlimit:10" />
	<line
   class="st8"
   x1="-435.20001"
   y1="179.60001"
   x2="-527.5"
   y2="72.400002"
   id="line1069"
   style="display:inline;fill:none;stroke:#091812;stroke-width:7.41599989;stroke-miterlimit:10" />
</g>
<style
   id="style1364"
   type="text/css">
	.st0{fill:#AFB8D1;}
	.st1{fill:#909CAF;}
	.st2{fill:#626E7F;}
	.st3{fill:#AFB8D2;}
	.st4{fill:#BCC9CB;}
	.st5{fill:#FEFFFF;}
	.st6{fill:#F7BF21;}
	.st7{fill:#129A68;}
	.st8{fill:#F26B31;}
	.st9{fill:#1F65B0;}
	.st10{fill:#EE3128;}
	.st11{fill:#CF582C;}
</style><style
   id="style1613"
   type="text/css">
	.st0{fill:#939598;}
	.st1{fill:#064F8C;}
</style><g
   id="g1560"
   transform="matrix(0.3141447,0,0,0.3141447,22.35596,2.1280344)"><g
     id="g1398">
	<g
   id="g1368">
		<path
   id="path1366"
   d="m 54.2,590.4 c 1.7,1.5 3.1,3.4 4.2,5.8 1.1,2.3 1.7,5.3 1.7,9 0,3.6 -0.7,6.9 -2,10 -1.3,3 -3.2,5.6 -5.5,7.9 -2.7,2.5 -5.8,4.3 -9.4,5.5 -3.6,1.2 -7.6,1.8 -11.9,1.8 -4.4,0 -8.7,-0.5 -13,-1.6 -4.3,-1 -7.8,-2.2 -10.5,-3.4 v -11.1 h 0.8 c 3,2 6.6,3.6 10.7,5 4.1,1.3 8,2 11.8,2 2.2,0 4.6,-0.4 7.1,-1.1 2.5,-0.7 4.6,-1.8 6.1,-3.3 1.6,-1.6 2.9,-3.3 3.6,-5.2 0.8,-1.9 1.2,-4.3 1.2,-7.1 0,-2.8 -0.5,-5.2 -1.4,-7.1 -0.9,-1.9 -2.2,-3.3 -3.8,-4.4 -1.6,-1.1 -3.5,-1.9 -5.8,-2.3 -2.3,-0.4 -4.7,-0.6 -7.4,-0.6 h -4.8 v -8.8 h 3.7 c 5.4,0 9.7,-1.1 12.9,-3.4 3.2,-2.3 4.8,-5.5 4.8,-9.9 0,-1.9 -0.4,-3.6 -1.2,-5 -0.8,-1.4 -2,-2.6 -3.4,-3.5 -1.5,-0.9 -3.2,-1.6 -4.9,-1.9 -1.7,-0.4 -3.7,-0.5 -5.9,-0.5 -3.4,0 -7,0.6 -10.8,1.8 -3.8,1.2 -7.4,2.9 -10.8,5.1 H 9.8 V 553 c 2.5,-1.2 5.9,-2.4 10.1,-3.4 4.2,-1 8.3,-1.6 12.2,-1.6 3.9,0 7.3,0.4 10.2,1.1 2.9,0.7 5.6,1.8 8,3.4 2.6,1.7 4.5,3.8 5.8,6.2 1.3,2.4 2,5.2 2,8.5 0,4.4 -1.6,8.2 -4.7,11.5 -3.1,3.3 -6.8,5.4 -11,6.2 v 0.7 c 1.7,0.3 3.7,0.9 5.9,1.8 2.5,0.5 4.4,1.7 5.9,3 z"
   class="st0"
   inkscape:connector-curvature="0"
   style="fill:#afb8d1" />
	</g>
	<g
   id="g1372">
		<path
   id="path1370"
   d="m 146,589 c 0,7.2 -1.6,13.7 -4.7,19.6 -3.1,5.9 -7.3,10.4 -12.5,13.6 -3.6,2.2 -7.7,3.9 -12.1,4.8 -4.5,1 -10.3,1.5 -17.6,1.5 h -20 v -79.3 h 19.8 c 7.7,0 13.9,0.6 18.5,1.7 4.6,1.1 8.4,2.7 11.6,4.6 5.4,3.4 9.6,7.9 12.6,13.5 2.9,5.6 4.4,12.3 4.4,20 z m -11.1,-0.1 c 0,-6.2 -1.1,-11.5 -3.2,-15.7 -2.2,-4.3 -5.4,-7.6 -9.7,-10.1 -3.1,-1.8 -6.4,-3 -10,-3.7 -3.5,-0.7 -7.7,-1 -12.6,-1 h -9.9 v 61.2 h 9.9 c 5.1,0 9.5,-0.4 13.3,-1.1 3.8,-0.7 7.3,-2.1 10.4,-4.2 3.9,-2.5 6.9,-5.8 8.9,-10 1.9,-4.1 2.9,-9.3 2.9,-15.4 z"
   class="st0"
   inkscape:connector-curvature="0"
   style="fill:#afb8d1" />
	</g>
	<g
   id="g1376">
		<path
   id="path1374"
   d="m 255.9,606 c 0,3.1 -0.7,6.1 -2.2,9.2 -1.4,3 -3.5,5.6 -6,7.7 -2.8,2.3 -6.2,4 -9.9,5.3 -3.8,1.3 -8.3,1.9 -13.7,1.9 -5.7,0 -10.9,-0.5 -15.4,-1.6 -4.6,-1.1 -9.2,-2.6 -13.9,-4.7 v -13.2 h 0.7 c 4,3.3 8.6,5.9 13.9,7.7 5.3,1.8 10.2,2.7 14.8,2.7 6.5,0 11.6,-1.2 15.3,-3.7 3.6,-2.5 5.5,-5.7 5.5,-9.8 0,-3.5 -0.9,-6.1 -2.6,-7.8 -1.7,-1.7 -4.3,-3 -7.9,-3.9 -2.7,-0.7 -5.6,-1.3 -8.7,-1.8 -3.1,-0.5 -6.4,-1 -9.9,-1.8 -7,-1.5 -12.2,-4 -15.6,-7.6 -3.4,-3.6 -5.1,-8.3 -5.1,-14.1 0,-6.6 2.8,-12.1 8.4,-16.3 5.6,-4.2 12.7,-6.4 21.4,-6.4 5.6,0 10.7,0.5 15.3,1.6 4.7,1.1 8.8,2.4 12.4,3.9 v 12.5 H 252 c -3,-2.6 -7,-4.7 -11.9,-6.4 -4.9,-1.7 -10,-2.5 -15.1,-2.5 -5.6,0 -10.2,1.2 -13.6,3.5 -3.4,2.3 -5.1,5.4 -5.1,9.1 0,3.3 0.9,5.9 2.6,7.8 1.7,1.9 4.7,3.3 9,4.3 2.3,0.5 5.5,1.1 9.7,1.8 4.2,0.7 7.7,1.4 10.7,2.2 5.9,1.6 10.3,3.9 13.3,7.1 2.8,3.2 4.3,7.6 4.3,13.3 z"
   class="st0"
   inkscape:connector-curvature="0"
   style="fill:#afb8d1" />
	</g>
	<g
   id="g1380">
		<path
   id="path1378"
   d="m 284.2,628.6 h -10 v -82.9 h 10 z"
   class="st0"
   inkscape:connector-curvature="0"
   style="fill:#afb8d1" />
	</g>
	<g
   id="g1384">
		<path
   id="path1382"
   d="m 316.9,559.1 h -11.3 v -10.4 h 11.3 z m -0.6,69.5 h -10 v -59.5 h 10 z"
   class="st0"
   inkscape:connector-curvature="0"
   style="fill:#afb8d1" />
	</g>
	<g
   id="g1388">
		<path
   id="path1386"
   d="m 383.7,624.9 c -3.3,1.6 -6.5,2.8 -9.5,3.7 -3,0.9 -6.2,1.3 -9.6,1.3 -4.3,0 -8.2,-0.6 -11.8,-1.9 -3.6,-1.3 -6.7,-3.2 -9.2,-5.7 -2.6,-2.6 -4.6,-5.8 -6,-9.7 -1.4,-3.9 -2.1,-8.5 -2.1,-13.7 0,-9.7 2.7,-17.4 8,-22.9 5.3,-5.5 12.4,-8.3 21.2,-8.3 3.4,0 6.8,0.5 10,1.4 3.3,1 6.3,2.1 9,3.5 v 11.1 h -0.5 c -3.1,-2.4 -6.2,-4.2 -9.5,-5.5 -3.2,-1.3 -6.4,-1.9 -9.5,-1.9 -5.7,0 -10.2,1.9 -13.5,5.7 -3.3,3.8 -4.9,9.4 -4.9,16.8 0,7.2 1.6,12.7 4.8,16.5 3.2,3.9 7.7,5.8 13.6,5.8 2,0 4.1,-0.3 6.2,-0.8 2.1,-0.5 4,-1.2 5.6,-2.1 1.5,-0.7 2.8,-1.5 4.1,-2.4 1.3,-0.8 2.3,-1.6 3,-2.2 h 0.5 v 11.3 z"
   class="st0"
   inkscape:connector-curvature="0"
   style="fill:#afb8d1" />
	</g>
	<g
   id="g1392">
		<path
   id="path1390"
   d="m 451.1,599.9 h -43.8 c 0,3.7 0.6,6.8 1.7,9.6 1.1,2.7 2.6,4.9 4.5,6.7 1.8,1.7 4,3 6.6,3.8 2.5,0.9 5.3,1.3 8.4,1.3 4,0 8.1,-0.8 12.2,-2.4 4.1,-1.6 7,-3.2 8.8,-4.8 H 450 V 625 c -3.4,1.4 -6.8,2.6 -10.3,3.6 -3.5,1 -7.2,1.4 -11.1,1.4 -9.9,0 -17.6,-2.7 -23.1,-8 -5.5,-5.3 -8.3,-12.9 -8.3,-22.8 0,-9.7 2.7,-17.5 8,-23.2 5.3,-5.7 12.3,-8.6 21,-8.6 8,0 14.2,2.3 18.6,7 4.4,4.7 6.5,11.3 6.5,20 v 5.5 z m -9.8,-7.7 c 0,-5.3 -1.4,-9.3 -4,-12.2 -2.6,-2.9 -6.6,-4.3 -11.9,-4.3 -5.4,0 -9.6,1.6 -12.8,4.7 -3.2,3.2 -5,7.1 -5.4,11.8 z"
   class="st0"
   inkscape:connector-curvature="0"
   style="fill:#afb8d1" />
	</g>
	<g
   id="g1396">
		<path
   id="path1394"
   d="m 505.2,580 h -0.5 c -1.5,-0.4 -2.9,-0.6 -4.3,-0.8 -1.4,-0.2 -3.1,-0.2 -5,-0.2 -3.1,0 -6.1,0.7 -9,2.1 -2.9,1.4 -5.6,3.1 -8.3,5.3 v 42.2 h -10 v -59.5 h 10 v 8.8 c 4,-3.2 7.5,-5.5 10.5,-6.8 3,-1.3 6.1,-2 9.3,-2 1.7,0 3,0 3.8,0.1 0.8,0.1 2,0.3 3.5,0.5 z"
   class="st0"
   inkscape:connector-curvature="0"
   style="fill:#afb8d1" />
	</g>
</g><g
     id="g1486">
	<path
   id="path1400"
   d="m 500.3,245.7 v 0 -77.3 H 425.8 V 93.9 H 351.2 V 19.4 L 289.9,19.3 274,19.4 c 0,0 -4.3,-16.3 -43.5,-13 C 104,19.4 5.5,126.2 5.5,256 c 0,138.6 112.4,251 251,251 129.6,0 236.3,-98.2 249.6,-224.3 2.1,-28 -5.8,-37 -5.8,-37 z"
   inkscape:connector-curvature="0" />
	<g
   id="g1410">
		<defs
   id="defs1403">
			<path
   d="m 261.1,348.7 c -28.4,0 -62.6,-3.3 -87.8,-6.6 -3.7,-27.6 -4.6,-57.5 -4.6,-89 0,-127 33.1,-231.8 75.1,-241.5 -127.4,6.9 -228.7,113.5 -228.7,244 0,135 108.3,244.4 242,244.4 129.1,0 234.5,-102.1 241.6,-230.6 -6.6,44.8 -112.7,79.3 -237.6,79.3 z"
   id="path1515"
   inkscape:connector-curvature="0" />
		</defs>
		<use
   id="use1405"
   style="overflow:visible;fill:#afb8d1"
   xlink:href="#SVGID_1_"
   x="0"
   y="0"
   width="100%"
   height="100%" />
		<clipPath
   id="SVGID_2_">
			<use
   id="use1407"
   style="overflow:visible"
   xlink:href="#SVGID_1_"
   x="0"
   y="0"
   width="100%"
   height="100%" />
		</clipPath>
	</g>
	<g
   id="g1416">
		<g
   id="g1414">
			<path
   id="path1412"
   d="M 256.1,501.4 C 191.1,501.4 130,475.8 84,429.4 38,383 12.7,321.2 12.7,255.6 12.8,125 113.8,17.2 242.8,10.1 c 0.7,0 1.3,0.5 1.5,1.2 0.1,0.7 -0.4,1.4 -1.1,1.5 -41.5,9.6 -74,115.1 -74,240.2 0,25 1.7,57.6 5.6,87.8 15.7,2 52,6.4 85.4,6.4 60.6,0 118.4,-8.1 162.7,-22.8 44.3,-14.7 70.4,-34.3 73.4,-55.3 0.1,-0.7 0.8,-1.2 1.5,-1.2 0.7,0.1 1.3,0.7 1.2,1.5 -7,130.1 -113.8,232 -242.9,232 z M 233.8,13.6 C 110.7,25 15.5,129.6 15.5,255.6 c 0,134 107.9,243 240.6,243 123.8,0 226.9,-94.8 239.3,-218 -9.2,17.8 -34,34 -71.7,46.5 -44.5,14.8 -102.6,22.9 -163.5,22.9 -34.3,0 -71,-5.4 -86,-7.4 -0.6,-0.1 -1.1,-0.6 -1.2,-1.2 -4.1,-30.7 -6.2,-63 -6.2,-88.4 0,-61.4 7.4,-120 21.5,-165.1 12.1,-38.9 28,-64.7 45.5,-74.3 z"
   inkscape:connector-curvature="0" />
		</g>
	</g>
	<g
   id="g1422">
		<g
   id="g1420">
			<path
   id="path1418"
   d="m 423.9,339.7 c -1,0.3 -2,0.6 -3,0.9 C 394,412 331.8,465.8 257.7,485 c 0.9,0 1.8,0 2.7,0 55.8,0 109.4,-20.1 150.8,-56.5 35.3,-31 59.2,-71.7 69,-116.3 -13.1,10.6 -32.1,19.9 -56.3,27.5 z"
   class="st1"
   inkscape:connector-curvature="0"
   style="fill:#909caf" />
		</g>
	</g>
	<g
   id="g1428">
		<g
   id="g1426">
			<path
   id="path1424"
   d="M 268.4,34.5 C 267.8,20.3 256.6,16.6 251.2,16.4 234.4,15.9 214.2,39.6 199.4,84.7 184.4,130.1 168,207 179.7,337.4 l 32.4,-31.3 c 0,0 -0.2,-2.5 -0.4,-5 0,0 -2.5,-31.5 -2.8,-47.5 -0.9,-48.7 3.3,-94.3 13.7,-128.7 10.4,-34.7 29.6,-64.1 44.5,-64.1 5.1,0 5.1,12.4 10,16.9 z"
   class="st2"
   inkscape:connector-curvature="0"
   style="fill:#626e7f" />
		</g>
	</g>
	<g
   id="g1434">
		<g
   id="g1432">
			<path
   id="path1430"
   d="m 424.9,319.5 c 27.9,-9.8 87.3,-36.3 62,-75.8 -1.5,-2.4 -3.4,-4.5 -5.7,-6.1 h -47.3 c 5.9,5.6 8.9,11.5 8.9,17.5 0,14.9 -18.5,28.8 -52,39.2 -33.3,10.4 -77.6,16.1 -124.8,16.1 -18.5,0 -36.7,-0.9 -54.2,-2.6 h -0.1 l -31.8,29.8 c 15.7,2 53.3,5.5 84.6,5.5 60.3,-0.1 117.3,-8.5 160.4,-23.6 z"
   class="st3"
   inkscape:connector-curvature="0"
   style="fill:#afb8d2" />
		</g>
	</g>
	<g
   id="g1438">
		<path
   id="path1436"
   d="m 268,66.7 c -25.5,0 -52.9,72.3 -52.9,179.9 0,16.5 1.5,38.3 2.8,54.1 L 286.3,233.2 286,73.8 c -4.9,-5.2 -13,-7.1 -18,-7.1 z"
   class="st4"
   inkscape:connector-curvature="0"
   style="fill:#bcc9cb" />
	</g>
	<g
   id="g1446">
		<g
   id="g1444">
			<path
   id="path1440"
   d="m 271.3,305.3 c -14.3,0 -34.6,-1.1 -48.2,-2.7 l 69.3,-67 149,-0.1 c 4,4.4 5.9,9.5 5.7,15.6 -0.3,10.4 -15.1,26.3 -46.9,36.4 -31.6,10.1 -75.2,16.4 -122.8,17.7 -1.8,0 -3.9,0.1 -6.1,0.1 z"
   class="st5"
   inkscape:connector-curvature="0"
   style="fill:#feffff" />
			<path
   id="path1442"
   d="m 271.3,306.7 c -14.1,0 -32.9,-1.1 -46.9,-2.7 l -2.8,-0.3 66.5,-69.5 h 0.6 l 153.3,-0.1 0.4,0.5 c 4.3,4.7 6.2,10.1 6,16.5 -0.2,6 -4.5,12.9 -12.1,19.4 -8.6,7.3 -21,13.7 -35.7,18.4 -31.8,10.1 -75.5,16.5 -123.2,17.8 -1.8,-0.1 -3.9,0 -6.1,0 z m -47.2,-5.2 c 13.5,1.4 34.2,2.4 47.2,2.4 2.2,0 4.2,0 6.1,-0.1 47.4,-1.3 90.9,-7.6 122.4,-17.7 14.4,-4.6 26.4,-10.8 34.7,-17.8 6.9,-5.9 11,-12.2 11.2,-17.3 0.2,-5.5 -1.4,-10.1 -4.9,-14.1 L 291.1,237 Z"
   inkscape:connector-curvature="0" />
		</g>
	</g>
	<path
   id="path1448"
   d="m 493.9,256.2 c -2,26.7 -21.7,46 -60.1,59 -67.2,22.8 -133.6,26.5 -177.4,25.6 -30,-0.6 -53.9,-3.4 -67.5,-5.4 l 29.7,-28.6 c 14,1.9 36.1,3.3 52.8,3.3 2.2,0 4.4,0 6.3,-0.1 48,-1.3 92.1,-7.7 124.1,-18 15,-4.8 27.7,-11.3 36.7,-18.9 8.5,-7.1 13.3,-15 13.5,-22.1 0.2,-7.9 -2.5,-14.7 -8.1,-20.2 l -0.4,-0.4 -153.7,0.1 -0.3,-156.8 c 0,-0.9 -0.3,-1.7 -0.9,-2.4 -5.3,-5.7 -14.2,-10.9 -20.5,-10.9 -14.7,0 -28.7,21.2 -39.3,54.7 -11,34.5 -17,81.2 -17,131.4 0,17.6 1.6,40.3 2.6,51.6 l -36.6,35.3 c -0.8,-0.1 -1.2,-0.2 -1.3,-0.2 0,0 0,0 0,0 l -2,9.6 c 1.3,0.3 33.1,6.7 81.6,7.7 4.2,0.1 8.3,0.1 12.5,0.1 24.2,0 48.2,-1.5 71.4,-4.4 34.1,-4.2 66.8,-11.6 97.1,-21.9 22.3,-7.6 39.2,-17.6 50.3,-29.7 9.8,-10.8 15.3,-23.5 16.4,-37.8 z m -51.7,-5.3 c -0.1,4.1 -3.9,9.7 -10.1,14.9 -8,6.7 -19.6,12.6 -33.4,17.1 -31.2,10 -74.3,16.2 -121.4,17.5 -17.9,0.1 -39.2,-0.6 -50.6,-1.5 l 60.6,-58.4 151.8,-0.1 c 2.3,3 3.2,6.3 3.1,10.5 z m -223.6,-4.2 c 0,-113.6 29,-176.2 49.2,-176.2 4.4,0 10.8,1.3 14.8,4.8 l 0.3,156.5 -11.9,11.7 -50.3,48.5 c -0.9,-12.1 -2.1,-30.5 -2.1,-45.3 z"
   inkscape:connector-curvature="0" />
	<g
   id="g1454">
		<g
   id="g1452">
			<rect
   id="rect1450"
   height="64.800003"
   width="64.800003"
   class="st6"
   y="29.1"
   x="276.39999"
   style="fill:#f7bf21" />
		</g>
	</g>
	<g
   id="g1460">
		<g
   id="g1458">
			<rect
   id="rect1456"
   height="64.800003"
   width="64.800003"
   class="st7"
   y="103.5"
   x="276.39999"
   style="fill:#129a68" />
		</g>
	</g>
	<g
   id="g1464">
		<rect
   id="rect1462"
   height="64.800003"
   width="64.800003"
   class="st8"
   y="103.5"
   x="351.10001"
   style="fill:#f26b31" />
	</g>
	<g
   id="g1470">
		<g
   id="g1468">
			<rect
   id="rect1466"
   height="64.800003"
   width="64.800003"
   class="st9"
   y="178.2"
   x="425.70001"
   style="fill:#1f65b0" />
		</g>
	</g>
	<g
   id="g1476">
		<g
   id="g1474">
			<rect
   id="rect1472"
   height="64.800003"
   width="64.800003"
   class="st10"
   y="178.2"
   x="276.39999"
   style="fill:#ee3128" />
		</g>
	</g>
	<g
   id="g1482">
		<g
   id="g1480">
			<rect
   id="rect1478"
   height="64.800003"
   width="64.800003"
   class="st11"
   y="178.2"
   x="351.10001"
   style="fill:#cf582c" />
		</g>
	</g>
	<path
   id="path1484"
   d="m 500.3,245.7 v 0 -77.3 H 425.8 V 93.9 H 351.2 V 19.4 H 274 c 0,0 -0.5,-1.9 -2.8,-4.3 0,0 -3.9,1.1 -3.9,3.3 0,2.2 0,232.7 0,232.7 l 4.1,1.5 h 224.9 z m -159.1,-2.8 h -64.4 v -64.8 h 64.4 z m 0,-74.4 h -64.4 v -65.1 h 64.4 z m 0,-74.7 H 276.8 V 29 h 64.4 z m 74.7,149.1 h -65.1 v -64.8 h 65.1 z m 0,-74.4 h -65.1 v -65.1 h 65.1 z m 74.6,74.4 h -64.8 v -64.8 h 64.8 z"
   inkscape:connector-curvature="0" />
</g></g></svg>