<?xml version="1.0" encoding="UTF-8" standalone="no"?>
<!-- Generator: Adobe Illustrator 25.4.1, SVG Export Plug-In . SVG Version: 6.00 Build 0)  -->

<svg
   xmlns:dc="http://purl.org/dc/elements/1.1/"
   xmlns:cc="http://creativecommons.org/ns#"
   xmlns:rdf="http://www.w3.org/1999/02/22-rdf-syntax-ns#"
   xmlns:svg="http://www.w3.org/2000/svg"
   xmlns="http://www.w3.org/2000/svg"
   xmlns:xlink="http://www.w3.org/1999/xlink"
   xmlns:sodipodi="http://sodipodi.sourceforge.net/DTD/sodipodi-0.dtd"
   xmlns:inkscape="http://www.inkscape.org/namespaces/inkscape"
   version="1.1"
   x="0px"
   y="0px"
   viewBox="0 0 849 484"
   xml:space="preserve"
   id="svg1072"
   sodipodi:docname="logo_slicer_horizontal.svg"
   width="849"
   height="484"
   inkscape:version="0.92.5 (2060ec1f9f, 2020-04-08)"><metadata
   id="metadata1078"><rdf:RDF><cc:Work
       rdf:about=""><dc:format>image/svg+xml</dc:format><dc:type
         rdf:resource="http://purl.org/dc/dcmitype/StillImage" /><dc:title></dc:title></cc:Work></rdf:RDF></metadata><defs
   id="defs1076"><path
     d="m 261.1,348.7 c -28.4,0 -62.6,-3.3 -87.8,-6.6 -3.7,-27.6 -4.6,-57.5 -4.6,-89 0,-127 33.1,-231.8 75.1,-241.5 -127.4,6.9 -228.7,113.5 -228.7,244 0,135 108.3,244.4 242,244.4 129.1,0 234.5,-102.1 241.6,-230.6 -6.6,44.8 -112.7,79.3 -237.6,79.3 z"
     id="SVGID_1_"
     inkscape:connector-curvature="0" /><path
     d="m 3225.3,4190 c -298.6,0 -658.1,-34.3 -922.8,-69.3 -38.9,-290.2 -48.7,-604.5 -48.7,-935.8 0,-1335.2 347.7,-2436.4 789.5,-2539.1 -1340.3,73 -2404.8,1193.7 -2404.8,2565.7 0,1419.1 1139,2569.6 2544,2569.6 1356.8,0 2465.5,-1073 2539.9,-2424.7 -68.8,471.5 -1184,833.6 -2497.1,833.6 z"
     id="SVGID_1_-5"
     inkscape:connector-curvature="0" /></defs><sodipodi:namedview
   pagecolor="#ffffff"
   bordercolor="#666666"
   borderopacity="1"
   objecttolerance="10"
   gridtolerance="10"
   guidetolerance="10"
   inkscape:pageopacity="0"
   inkscape:pageshadow="2"
   inkscape:window-width="1920"
   inkscape:window-height="1016"
   id="namedview1074"
   showgrid="false"
   inkscape:snap-page="true"
   inkscape:snap-bbox="true"
   inkscape:snap-bbox-edge-midpoints="false"
   inkscape:object-nodes="false"
   inkscape:zoom="0.4375"
   inkscape:cx="465.6722"
   inkscape:cy="-198.2651"
   inkscape:window-x="0"
   inkscape:window-y="27"
   inkscape:window-maximized="1"
   inkscape:current-layer="svg1072"
   inkscape:bbox-nodes="true"
   inkscape:snap-global="true" />
<style
   type="text/css"
   id="style815">
	.st0{display:none;}
	.st1{display:inline;}
	.st2{fill:#8C8985;}
	.st3{display:inline;fill:none;stroke:#DCE3EC;stroke-width:7.416;stroke-miterlimit:10;}
	.st4{fill:#C7C7C6;}
	.st5{fill:#3EAE2B;}
	.st6{fill:#0068C7;}
	.st7{display:inline;fill:none;stroke:#C7C7C6;stroke-width:13.176;stroke-miterlimit:10;}
	.st8{display:inline;fill:none;stroke:#091812;stroke-width:7.416;stroke-miterlimit:10;}
</style>
<g
   id="Template"
   class="st0"
   style="display:none"
   transform="translate(0,239.8)">
	<g
   class="st1"
   id="g853"
   style="display:inline">
		<g
   id="g837">
			<g
   id="g835">
				<path
   class="st2"
   d="m 515,78.1 c -2.9,8.3 -5.5,16.1 -8.2,23.8 -6.6,18.9 -13.3,37.8 -19.7,56.8 -1.2,3.7 -2.8,5.2 -7,5 -8.3,-0.4 -8.3,-0.1 -11.1,-8.1 -6.2,-17.7 -12.4,-35.3 -18.7,-53 -0.4,-1.2 -1.1,-2.4 -1.9,-4.1 -4.2,11.7 -8.1,22.8 -12,33.8 -3.2,9.1 -6.6,18.2 -9.7,27.4 -0.9,2.8 -2.2,4 -5.3,3.9 -9.5,-0.2 -9.4,-0.1 -12.6,-9.2 -8.6,-24.8 -17.3,-49.7 -25.9,-74.5 -0.2,-0.5 -0.3,-1 -0.5,-1.7 4.4,0 8.6,0 13.1,0 7.6,22.2 15.2,44.4 23.2,67.6 2.5,-7.1 4.6,-13.2 6.7,-19.4 5.1,-14.9 10.3,-29.9 15.3,-44.9 0.9,-2.6 2,-3.7 5,-3.6 9.7,0.2 9.6,0.1 12.7,9.1 6.1,18.2 12.4,36.5 18.6,54.7 0.3,1 0.8,1.9 1.6,3.6 2.4,-7 4.7,-13.3 6.8,-19.6 5.1,-14.8 10.2,-29.6 15.1,-44.5 0.8,-2.4 1.8,-3.5 4.5,-3.3 3.1,0.4 6.2,0.2 10,0.2 z"
   id="path817"
   inkscape:connector-curvature="0"
   style="fill:#8c8985" />
				<path
   class="st2"
   d="m 725.7,147.6 c 0.6,3.8 1.2,7.6 1.9,11.7 -16.8,6.3 -33.6,8.7 -50.5,1.6 -10.1,-4.2 -15.5,-12.8 -17.9,-23.1 -2.9,-12.8 -2.7,-25.6 1.3,-38.2 3.8,-12.1 12,-19.6 24.4,-22.1 8.7,-1.8 17.6,-1.5 25.9,1.9 12.7,5.1 18.2,15.4 19.3,28.4 0.5,5.9 0.1,11.9 0.1,18.3 h -59.3 c -0.8,15.9 8.2,26 23.6,26.5 5.3,0.2 10.7,0 15.9,-0.9 4.9,-0.9 9.9,-2.6 15.3,-4.1 z m -54.9,-33 H 718 c 0,-20 -9.2,-26.5 -23.8,-26.5 -14.6,-0.1 -24,6.9 -23.4,26.5 z"
   id="path819"
   inkscape:connector-curvature="0"
   style="fill:#8c8985" />
				<path
   class="st2"
   d="m 529.6,91.7 c -0.2,-0.2 -0.3,-0.3 -0.4,-0.4 -2.8,-13.2 -4,-10.9 8.1,-13.2 9.9,-1.9 19.8,-2.3 29.6,0.1 12.7,3.1 20.1,11.8 20.3,25.1 0.2,18 0.1,36 0,54 0,1.1 -1,3 -1.8,3.2 -16.3,4.5 -32.8,7.2 -49.4,1.6 -11,-3.7 -16,-12.1 -15.7,-24.5 0.3,-11.4 6.3,-19.9 17.3,-22.5 7.1,-1.7 14.7,-1.9 22.1,-2.5 4.7,-0.3 9.5,-0.1 15.2,-0.1 -0.6,-5.2 -0.6,-10 -1.7,-14.5 -1.4,-5.6 -6.1,-7.7 -11.3,-8.7 -10.1,-1.8 -20.1,-0.7 -30,1.9 -0.8,0.2 -1.6,0.4 -2.3,0.5 z m 44.8,45.2 c 0,-3.9 0.1,-7.7 -0.1,-11.6 -0.1,-1 -1.4,-2.9 -2.1,-2.8 -9.3,0.3 -18.6,0.3 -27.8,1.6 -7.5,1 -11.3,7.1 -11.2,14.8 0.2,7.8 3.8,12.2 11.5,14 9,2.1 18,0.7 26.9,-0.8 1.6,-0.3 2.8,-1.8 2.7,-3.4 0,-4 0.1,-7.9 0.1,-11.8 z"
   id="path821"
   inkscape:connector-curvature="0"
   style="fill:#8c8985" />
				<path
   class="st2"
   d="m 371.5,78 v 12.1 h -34.1 c 0,2.3 0,4.3 0,6.2 0,13.9 -0.1,27.7 0.2,41.6 0.2,9.4 5.9,15 15.3,14.6 6,-0.2 12,-1.8 18,-2.8 0.8,-0.1 1.5,-0.3 2.4,-0.5 0.6,3.3 1.3,6.4 1.7,9.5 0.1,0.9 -0.6,2.5 -1.2,2.7 -11.3,4 -22.8,5.6 -34.3,1 -9.8,-3.9 -13.9,-12.2 -14.6,-22 -0.7,-9.2 -0.5,-18.4 -0.5,-27.6 -0.1,-17.6 0,-35.2 0,-52.8 0,-1.6 0,-3.1 0,-4.9 h 13 V 78 Z"
   id="path823"
   inkscape:connector-curvature="0"
   style="fill:#8c8985" />
				<path
   class="st2"
   d="m 206.4,42.4 c 3.6,0 7,-0.2 10.4,0.1 0.8,0.1 1.8,1.4 2.3,2.3 0.4,0.8 0.1,1.8 0.1,2.8 0,37 0,74 0,111 0,1.6 0,3.1 0,4.9 h -12.8 z"
   id="path825"
   inkscape:connector-curvature="0"
   style="fill:#8c8985" />
				<path
   class="st2"
   d="m 651.9,79 c -0.8,3.9 -1.5,7.6 -2.2,10.9 -6.3,-0.3 -12.3,-0.6 -18.4,-0.7 -2,0 -4,0.3 -5.9,0.6 -3.2,0.4 -4.5,2 -4.4,5.6 0.2,21.1 0.1,42.1 0.1,63.2 0,1.5 0,2.9 0,4.7 h -12.6 c -0.1,-1.2 -0.2,-2.5 -0.2,-3.8 0,-24.8 0.1,-49.6 -0.1,-74.4 0,-3.2 1.1,-4.4 4,-5.2 12.4,-3.4 24.8,-4.6 37.4,-1.8 0.6,0.3 1.4,0.6 2.3,0.9 z"
   id="path827"
   inkscape:connector-curvature="0"
   style="fill:#8c8985" />
				<path
   class="st2"
   d="m 278.6,163.6 c -5.7,0 -10.2,0.1 -14.7,-0.1 -1.1,0 -2.5,-0.8 -3.3,-1.7 -12.3,-14.1 -24.6,-28.3 -36.9,-42.5 -0.2,-0.2 -0.2,-0.5 -0.4,-1.1 5.6,-6.4 11.4,-13 17.1,-19.6 5.3,-6 10.5,-12.1 16,-18 1.1,-1.2 3.2,-2.2 4.8,-2.3 4.2,-0.3 8.4,-0.1 13.7,-0.1 -12.1,13.8 -23.6,27 -35.3,40.4 z"
   id="path829"
   inkscape:connector-curvature="0"
   style="fill:#8c8985" />
				<rect
   x="290.5"
   y="78.300003"
   class="st2"
   width="12.3"
   height="85.099998"
   id="rect831"
   style="fill:#8c8985" />
				<path
   class="st2"
   d="m 304.9,48.7 c 0,4.7 -3.6,8.2 -8.4,8.1 -4.7,0 -8.4,-3.7 -8.4,-8.2 0,-4.7 3.8,-8.5 8.7,-8.4 4.6,0.1 8.1,3.8 8.1,8.5 z"
   id="path833"
   inkscape:connector-curvature="0"
   style="fill:#8c8985" />
			</g>
		</g>
		<path
   class="st2"
   d="m 175.6,176 c -5.9,0 -10.6,0.1 -15.3,-0.1 -1.2,-0.1 -2.6,-0.9 -3.4,-1.8 -12.3,-14.3 -54.1,-62.8 -57.5,-66.7 -0.1,-0.2 -0.1,-0.4 0,-0.5 1.7,-1.9 12.4,-14.1 17.9,-20.5 5.6,-6.4 39.7,-45.3 45.4,-51.5 1.1,-1.2 3.2,-2.1 4.8,-2.2 4.4,-0.3 9.3,-0.1 14.7,-0.1 -12.6,14.4 -53.7,60.6 -65.9,74.5 13.5,15.5 45.3,52.7 59.3,68.9 z"
   id="path839"
   inkscape:connector-curvature="0"
   style="fill:#8c8985" />
		<g
   id="g847">
			<g
   id="g845">
				<path
   class="st2"
   d="m 93.9,101.9 c 16.2,-18.6 51.9,-59.4 60.9,-69.7 -5.4,0 -9.9,-0.2 -14.2,0.1 -1.7,0.1 -3.7,1 -4.8,2.2 -4.6,5 -39.3,44.7 -50.4,57.4 2.8,3.4 5.6,6.7 8.5,10 z"
   id="path841"
   inkscape:connector-curvature="0"
   style="fill:#8c8985" />
				<path
   class="st2"
   d="m 80.5,86.3 c 13.2,-15.1 40.6,-46.5 47.3,-54.1 -5.4,0 -9.9,-0.2 -14.2,0.1 -1.7,0.1 -3.7,1 -4.8,2.2 -3,3.3 -27,30.7 -36.8,41.8 2.7,3.3 5.5,6.6 8.5,10 z"
   id="path843"
   inkscape:connector-curvature="0"
   style="fill:#8c8985" />
			</g>
		</g>
		<path
   class="st2"
   d="m 71.8,118.9 v 20 c 13.7,16 27.8,32.3 30.4,35.3 0.8,0.9 2.2,1.7 3.4,1.8 4.7,0.2 9.4,0.1 15.3,0.1 -5.1,-5.9 -30.3,-35.3 -49.1,-57.2 z"
   id="path849"
   inkscape:connector-curvature="0"
   style="fill:#8c8985" />
		<path
   class="st2"
   d="m 71.8,87.4 v 20 c 20.1,23.3 51.8,60 57.6,66.7 0.8,0.9 2.2,1.7 3.4,1.8 4.7,0.2 9.4,0.1 15.3,0.1 C 139,165.4 91.8,110.6 71.8,87.4 Z"
   id="path851"
   inkscape:connector-curvature="0"
   style="fill:#8c8985" />
	</g>
	<polygon
   class="st3"
   points="1382.5,-88.5 1308.5,-88.5 1271.6,-47.1 1308.5,-5.6 1382.5,-5.6 1419.5,-47.1 "
   id="polygon855"
   style="display:inline;fill:none;stroke:#dce3ec;stroke-width:7.41599989;stroke-miterlimit:10" />
	<polygon
   class="st3"
   points="1505.7,-137.3 1431.7,-137.3 1394.7,-95.9 1431.7,-54.5 1505.7,-54.5 1542.6,-95.9 "
   id="polygon857"
   style="display:inline;fill:none;stroke:#dce3ec;stroke-width:7.41599989;stroke-miterlimit:10" />
	<polygon
   class="st3"
   points="1505.7,-39.7 1431.7,-39.7 1394.7,1.8 1431.7,43.2 1505.7,43.2 1542.6,1.8 "
   id="polygon859"
   style="display:inline;fill:none;stroke:#dce3ec;stroke-width:7.41599989;stroke-miterlimit:10" />
	<polygon
   class="st3"
   points="1629.2,-88.8 1555.2,-88.8 1518.2,-47.4 1555.2,-6 1629.2,-6 1666.1,-47.4 "
   id="polygon861"
   style="display:inline;fill:none;stroke:#dce3ec;stroke-width:7.41599989;stroke-miterlimit:10" />
	<polygon
   class="st3"
   points="1628.8,8.5 1554.8,8.5 1517.8,49.9 1554.8,91.3 1628.8,91.3 1665.8,49.9 "
   id="polygon863"
   style="display:inline;fill:none;stroke:#dce3ec;stroke-width:7.41599989;stroke-miterlimit:10" />
	<polygon
   class="st3"
   points="1752.3,-39.7 1678.4,-39.7 1641.4,1.8 1678.4,43.2 1752.3,43.2 1789.3,1.8 "
   id="polygon865"
   style="display:inline;fill:none;stroke:#dce3ec;stroke-width:7.41599989;stroke-miterlimit:10" />
	<polygon
   class="st3"
   points="1751.9,57.1 1678,57.1 1641,98.6 1678,140 1751.9,140 1788.9,98.6 "
   id="polygon867"
   style="display:inline;fill:none;stroke:#dce3ec;stroke-width:7.41599989;stroke-miterlimit:10" />
	<polygon
   class="st3"
   points="1876.2,9.2 1802.2,9.2 1765.3,50.7 1802.2,92.1 1876.2,92.1 1913.2,50.7 "
   id="polygon869"
   style="display:inline;fill:none;stroke:#dce3ec;stroke-width:7.41599989;stroke-miterlimit:10" />
	<polygon
   class="st3"
   points="1507.3,-234.6 1433.3,-234.6 1396.3,-193.2 1433.3,-151.8 1507.3,-151.8 1544.2,-193.2 "
   id="polygon871"
   style="display:inline;fill:none;stroke:#dce3ec;stroke-width:7.41599989;stroke-miterlimit:10" />
	<polygon
   class="st3"
   points="1630.4,-283.5 1556.4,-283.5 1519.5,-242 1556.4,-200.6 1630.4,-200.6 1667.4,-242 "
   id="polygon873"
   style="display:inline;fill:none;stroke:#dce3ec;stroke-width:7.41599989;stroke-miterlimit:10" />
	<polygon
   class="st3"
   points="1630.4,-186.2 1556.4,-186.2 1519.5,-144.7 1556.4,-103.3 1630.4,-103.3 1667.4,-144.7 "
   id="polygon875"
   style="display:inline;fill:none;stroke:#dce3ec;stroke-width:7.41599989;stroke-miterlimit:10" />
	<polygon
   class="st3"
   points="1753.9,-234.6 1679.9,-234.6 1643,-193.2 1679.9,-151.8 1753.9,-151.8 1790.9,-193.2 "
   id="polygon877"
   style="display:inline;fill:none;stroke:#dce3ec;stroke-width:7.41599989;stroke-miterlimit:10" />
	<polygon
   class="st3"
   points="1753.5,-136.9 1679.6,-136.9 1642.6,-95.5 1679.6,-54.1 1753.5,-54.1 1790.5,-95.5 "
   id="polygon879"
   style="display:inline;fill:none;stroke:#dce3ec;stroke-width:7.41599989;stroke-miterlimit:10" />
	<polygon
   class="st3"
   points="1877.1,-185.8 1803.1,-185.8 1766.1,-144.4 1803.1,-102.9 1877.1,-102.9 1914.1,-144.4 "
   id="polygon881"
   style="display:inline;fill:none;stroke:#dce3ec;stroke-width:7.41599989;stroke-miterlimit:10" />
	<polygon
   class="st3"
   points="1876.7,-89 1802.7,-89 1765.7,-47.6 1802.7,-6.1 1876.7,-6.1 1913.7,-47.6 "
   id="polygon883"
   style="display:inline;fill:none;stroke:#dce3ec;stroke-width:7.41599989;stroke-miterlimit:10" />
	<polygon
   class="st3"
   points="2001,-136.9 1927,-136.9 1890,-95.5 1927,-54.1 2001,-54.1 2038,-95.5 "
   id="polygon885"
   style="display:inline;fill:none;stroke:#dce3ec;stroke-width:7.41599989;stroke-miterlimit:10" />
	<polygon
   class="st3"
   points="1382.5,300 1308.5,300 1271.6,341.4 1308.5,382.9 1382.5,382.9 1419.5,341.4 "
   id="polygon887"
   style="display:inline;fill:none;stroke:#dce3ec;stroke-width:7.41599989;stroke-miterlimit:10" />
	<polygon
   class="st3"
   points="1505.7,251.2 1431.7,251.2 1394.7,292.6 1431.7,334 1505.7,334 1542.6,292.6 "
   id="polygon889"
   style="display:inline;fill:none;stroke:#dce3ec;stroke-width:7.41599989;stroke-miterlimit:10" />
	<polygon
   class="st3"
   points="1505.7,348.8 1431.7,348.8 1394.7,390.3 1431.7,431.7 1505.7,431.7 1542.6,390.3 "
   id="polygon891"
   style="display:inline;fill:none;stroke:#dce3ec;stroke-width:7.41599989;stroke-miterlimit:10" />
	<polygon
   class="st3"
   points="1629.2,300.4 1555.2,300.4 1518.2,341.9 1555.2,383.3 1629.2,383.3 1666.1,341.9 "
   id="polygon893"
   style="display:inline;fill:none;stroke:#dce3ec;stroke-width:7.41599989;stroke-miterlimit:10" />
	<polygon
   class="st3"
   points="1628.8,397.7 1554.8,397.7 1517.8,439.2 1554.8,480.6 1628.8,480.6 1665.8,439.2 "
   id="polygon895"
   style="display:inline;fill:none;stroke:#dce3ec;stroke-width:7.41599989;stroke-miterlimit:10" />
	<polygon
   class="st3"
   points="1752.3,348.8 1678.4,348.8 1641.4,390.3 1678.4,431.7 1752.3,431.7 1789.3,390.3 "
   id="polygon897"
   style="display:inline;fill:none;stroke:#dce3ec;stroke-width:7.41599989;stroke-miterlimit:10" />
	<polygon
   class="st3"
   points="1751.9,445.7 1678,445.7 1641,487.1 1678,528.5 1751.9,528.5 1788.9,487.1 "
   id="polygon899"
   style="display:inline;fill:none;stroke:#dce3ec;stroke-width:7.41599989;stroke-miterlimit:10" />
	<polygon
   class="st3"
   points="1876.2,397.7 1802.2,397.7 1765.3,439.2 1802.2,480.6 1876.2,480.6 1913.2,439.2 "
   id="polygon901"
   style="display:inline;fill:none;stroke:#dce3ec;stroke-width:7.41599989;stroke-miterlimit:10" />
	<polygon
   class="st3"
   points="1507.3,153.9 1433.3,153.9 1396.3,195.3 1433.3,236.7 1507.3,236.7 1544.2,195.3 "
   id="polygon903"
   style="display:inline;fill:none;stroke:#dce3ec;stroke-width:7.41599989;stroke-miterlimit:10" />
	<polygon
   class="st3"
   points="1630.4,105.8 1556.4,105.8 1519.5,147.2 1556.4,188.7 1630.4,188.7 1667.4,147.2 "
   id="polygon905"
   style="display:inline;fill:none;stroke:#dce3ec;stroke-width:7.41599989;stroke-miterlimit:10" />
	<polygon
   class="st3"
   points="1630.4,203.1 1556.4,203.1 1519.5,244.5 1556.4,286 1630.4,286 1667.4,244.5 "
   id="polygon907"
   style="display:inline;fill:none;stroke:#dce3ec;stroke-width:7.41599989;stroke-miterlimit:10" />
	<polygon
   class="st3"
   points="1753.9,153.9 1679.9,153.9 1643,195.3 1679.9,236.7 1753.9,236.7 1790.9,195.3 "
   id="polygon909"
   style="display:inline;fill:none;stroke:#dce3ec;stroke-width:7.41599989;stroke-miterlimit:10" />
	<polygon
   class="st3"
   points="1753.5,251.6 1679.6,251.6 1642.6,293 1679.6,334.5 1753.5,334.5 1790.5,293 "
   id="polygon911"
   style="display:inline;fill:none;stroke:#dce3ec;stroke-width:7.41599989;stroke-miterlimit:10" />
	<polygon
   class="st3"
   points="1876.5,105.4 1802.6,105.4 1765.6,146.8 1802.6,188.3 1876.5,188.3 1913.5,146.8 "
   id="polygon913"
   style="display:inline;fill:none;stroke:#dce3ec;stroke-width:7.41599989;stroke-miterlimit:10" />
	<polygon
   class="st3"
   points="1999.7,56.6 1925.7,56.6 1888.7,98 1925.7,139.4 1999.7,139.4 2036.7,98 "
   id="polygon915"
   style="display:inline;fill:none;stroke:#dce3ec;stroke-width:7.41599989;stroke-miterlimit:10" />
	<polygon
   class="st3"
   points="1999.7,-39 1925.7,-39 1888.7,2.5 1925.7,43.9 1999.7,43.9 2036.7,2.5 "
   id="polygon917"
   style="display:inline;fill:none;stroke:#dce3ec;stroke-width:7.41599989;stroke-miterlimit:10" />
	<polygon
   class="st3"
   points="1999.7,154.2 1925.7,154.2 1888.7,195.7 1925.7,237.1 1999.7,237.1 2036.7,195.7 "
   id="polygon919"
   style="display:inline;fill:none;stroke:#dce3ec;stroke-width:7.41599989;stroke-miterlimit:10" />
	<polygon
   class="st3"
   points="2123.2,105.4 2049.2,105.4 2012.2,146.8 2049.2,188.3 2123.2,188.3 2160.2,146.8 "
   id="polygon921"
   style="display:inline;fill:none;stroke:#dce3ec;stroke-width:7.41599989;stroke-miterlimit:10" />
	<polygon
   class="st3"
   points="2122.8,203.1 2048.9,203.1 2011.9,244.6 2048.9,286 2122.8,286 2159.8,244.6 "
   id="polygon923"
   style="display:inline;fill:none;stroke:#dce3ec;stroke-width:7.41599989;stroke-miterlimit:10" />
	<polygon
   class="st3"
   points="2246.4,154.2 2172.4,154.2 2135.4,195.7 2172.4,237.1 2246.4,237.1 2283.3,195.7 "
   id="polygon925"
   style="display:inline;fill:none;stroke:#dce3ec;stroke-width:7.41599989;stroke-miterlimit:10" />
	<polygon
   class="st3"
   points="2246,251 2172,251 2135,292.5 2172,333.9 2246,333.9 2282.9,292.5 "
   id="polygon927"
   style="display:inline;fill:none;stroke:#dce3ec;stroke-width:7.41599989;stroke-miterlimit:10" />
	<polygon
   class="st3"
   points="2124.4,8.1 2050.5,8.1 2013.5,49.5 2050.5,91 2124.4,91 2161.4,49.5 "
   id="polygon929"
   style="display:inline;fill:none;stroke:#dce3ec;stroke-width:7.41599989;stroke-miterlimit:10" />
	<polygon
   class="st3"
   points="2247.6,57 2173.6,57 2136.6,98.4 2173.6,139.8 2247.6,139.8 2284.6,98.4 "
   id="polygon931"
   style="display:inline;fill:none;stroke:#dce3ec;stroke-width:7.41599989;stroke-miterlimit:10" />
	<polygon
   class="st3"
   points="1877.1,202.7 1803.1,202.7 1766.1,244.1 1803.1,285.6 1877.1,285.6 1914.1,244.1 "
   id="polygon933"
   style="display:inline;fill:none;stroke:#dce3ec;stroke-width:7.41599989;stroke-miterlimit:10" />
	<polygon
   class="st3"
   points="1876.7,299.5 1802.7,299.5 1765.7,341 1802.7,382.4 1876.7,382.4 1913.7,341 "
   id="polygon935"
   style="display:inline;fill:none;stroke:#dce3ec;stroke-width:7.41599989;stroke-miterlimit:10" />
	<polygon
   class="st3"
   points="2001,251.6 1927,251.6 1890,293 1927,334.5 2001,334.5 2038,293 "
   id="polygon937"
   style="display:inline;fill:none;stroke:#dce3ec;stroke-width:7.41599989;stroke-miterlimit:10" />
	<g
   class="st1"
   id="g941"
   style="display:inline">
		<path
   class="st4"
   d="m 2075.1,-717.4 31.4,54.4 -31.4,54.4 h -62.9 l -31.4,-54.4 31.4,-54.4 h 62.9 m 7.6,-13.2 h -78.1 l -39,67.6 39,67.6 h 78.1 l 39,-67.6 z"
   id="path939"
   inkscape:connector-curvature="0"
   style="fill:#c7c7c6" />
	</g>
	<g
   class="st1"
   id="g945"
   style="display:inline">
		<path
   class="st4"
   d="m 2203.4,-792.3 31.4,54.4 -31.4,54.4 h -62.9 l -31.4,-54.4 31.4,-54.4 h 62.9 m 7.6,-13.1 h -78 l -39,67.6 39,67.6 h 78.1 l 39,-67.6 z"
   id="path943"
   inkscape:connector-curvature="0"
   style="fill:#c7c7c6" />
	</g>
	<g
   class="st1"
   id="g949"
   style="display:inline">
		<path
   class="st4"
   d="m 2329.6,-717.4 31.4,54.4 -31.4,54.4 h -62.9 l -31.4,-54.4 31.4,-54.4 h 62.9 m 7.6,-13.2 h -78.1 l -39,67.6 39,67.6 h 78.1 l 39,-67.6 z"
   id="path947"
   inkscape:connector-curvature="0"
   style="fill:#c7c7c6" />
	</g>
	<g
   class="st1"
   id="g953"
   style="display:inline">
		<path
   class="st4"
   d="m 2457.9,-792.3 31.4,54.4 -31.4,54.4 H 2395 l -31.4,-54.4 31.4,-54.4 h 62.9 m 7.6,-13.1 h -78.1 l -39,67.6 39,67.6 h 78.1 l 39,-67.6 z"
   id="path951"
   inkscape:connector-curvature="0"
   style="fill:#c7c7c6" />
	</g>
	<g
   class="st1"
   id="g957"
   style="display:inline">
		<path
   class="st4"
   d="m 2584.1,-717.4 31.4,54.4 -31.4,54.4 h -62.9 l -31.4,-54.4 31.4,-54.4 h 62.9 m 7.6,-13.2 h -78.1 l -39,67.6 39,67.6 h 78.1 l 39,-67.6 z"
   id="path955"
   inkscape:connector-curvature="0"
   style="fill:#c7c7c6" />
	</g>
	<g
   class="st1"
   id="g961"
   style="display:inline">
		<path
   class="st4"
   d="m 2712.4,-792.3 31.4,54.4 -31.4,54.4 h -62.9 l -31.4,-54.4 31.4,-54.4 h 62.9 m 7.6,-13.1 h -78 l -39,67.6 39,67.6 h 78.1 l 39,-67.6 z"
   id="path959"
   inkscape:connector-curvature="0"
   style="fill:#c7c7c6" />
	</g>
	<g
   class="st1"
   id="g965"
   style="display:inline">
		<path
   class="st4"
   d="m 2073,-569.8 31.4,54.4 -31.4,54.4 h -62.9 l -31.4,-54.4 31.4,-54.4 h 62.9 m 7.6,-13.2 h -78.1 l -39,67.6 39,67.6 h 78.1 l 39,-67.6 z"
   id="path963"
   inkscape:connector-curvature="0"
   style="fill:#c7c7c6" />
	</g>
	<g
   class="st1"
   id="g969"
   style="display:inline">
		<path
   class="st4"
   d="m 2201.3,-644.7 31.4,54.4 -31.4,54.4 h -62.9 l -31.4,-54.4 31.4,-54.4 h 62.9 m 7.6,-13.2 h -78.1 l -39,67.6 39,67.6 h 78.1 l 39,-67.6 z"
   id="path967"
   inkscape:connector-curvature="0"
   style="fill:#c7c7c6" />
	</g>
	<g
   class="st1"
   id="g973"
   style="display:inline">
		<path
   class="st4"
   d="m 2327.5,-569.8 31.4,54.4 -31.4,54.4 h -62.9 l -31.4,-54.4 31.4,-54.4 h 62.9 m 7.6,-13.2 H 2257 l -39,67.6 39,67.6 h 78.1 l 39,-67.6 z"
   id="path971"
   inkscape:connector-curvature="0"
   style="fill:#c7c7c6" />
	</g>
	<g
   class="st1"
   id="g977"
   style="display:inline">
		<path
   class="st4"
   d="m 2455.8,-644.7 31.4,54.4 -31.4,54.4 h -62.9 l -31.4,-54.4 31.4,-54.4 h 62.9 m 7.6,-13.2 h -78.1 l -39,67.6 39,67.6 h 78.1 l 39,-67.6 z"
   id="path975"
   inkscape:connector-curvature="0"
   style="fill:#c7c7c6" />
	</g>
	<g
   class="st1"
   id="g981"
   style="display:inline">
		<path
   class="st4"
   d="m 2582,-569.8 31.4,54.4 -31.4,54.4 h -62.9 l -31.4,-54.4 31.4,-54.4 h 62.9 m 7.6,-13.2 h -78.1 l -39,67.6 39,67.6 h 78.1 l 39,-67.6 z"
   id="path979"
   inkscape:connector-curvature="0"
   style="fill:#c7c7c6" />
	</g>
	<g
   class="st1"
   id="g985"
   style="display:inline">
		<path
   class="st4"
   d="m 2710.3,-644.7 31.4,54.4 -31.4,54.4 h -62.9 l -31.4,-54.4 31.4,-54.4 h 62.9 m 7.6,-13.2 h -78.1 l -39,67.6 39,67.6 h 78.1 l 39,-67.6 z"
   id="path983"
   inkscape:connector-curvature="0"
   style="fill:#c7c7c6" />
	</g>
	<g
   class="st1"
   id="g989"
   style="display:inline">
		<path
   class="st4"
   d="m 2327.5,-420.1 31.4,54.4 -31.4,54.4 h -62.9 l -31.4,-54.4 31.4,-54.4 h 62.9 m 7.6,-13.2 H 2257 l -39,67.6 39,67.6 h 78.1 l 39,-67.6 z"
   id="path987"
   inkscape:connector-curvature="0"
   style="fill:#c7c7c6" />
	</g>
	<g
   class="st1"
   id="g993"
   style="display:inline">
		<path
   class="st4"
   d="m 2455.8,-495 31.4,54.4 -31.4,54.4 h -62.9 l -31.4,-54.4 31.4,-54.4 h 62.9 m 7.6,-13.2 h -78.1 l -39,67.6 39,67.6 h 78.1 l 39,-67.6 z"
   id="path991"
   inkscape:connector-curvature="0"
   style="fill:#c7c7c6" />
	</g>
	<g
   class="st1"
   id="g997"
   style="display:inline">
		<path
   class="st4"
   d="m 2582,-420.1 31.4,54.4 -31.4,54.4 h -62.9 l -31.4,-54.4 31.4,-54.4 h 62.9 m 7.6,-13.2 h -78.1 l -39,67.6 39,67.6 h 78.1 l 39,-67.6 z"
   id="path995"
   inkscape:connector-curvature="0"
   style="fill:#c7c7c6" />
	</g>
	<g
   class="st1"
   id="g1001"
   style="display:inline">
		<path
   class="st4"
   d="m 2710.3,-495 31.4,54.4 -31.4,54.4 h -62.9 l -31.4,-54.4 31.4,-54.4 h 62.9 m 7.6,-13.2 h -78.1 l -39,67.6 39,67.6 h 78.1 l 39,-67.6 z"
   id="path999"
   inkscape:connector-curvature="0"
   style="fill:#c7c7c6" />
	</g>
	<g
   class="st1"
   id="g1005"
   style="display:inline">
		<path
   class="st4"
   d="m 2836.5,-420.1 31.4,54.4 -31.4,54.4 h -62.9 l -31.4,-54.4 31.4,-54.4 h 62.9 m 7.6,-13.2 H 2766 l -39,67.6 39,67.6 h 78.1 l 39,-67.6 z"
   id="path1003"
   inkscape:connector-curvature="0"
   style="fill:#c7c7c6" />
	</g>
	<g
   class="st1"
   id="g1009"
   style="display:inline">
		<path
   class="st4"
   d="m 2964.8,-495 31.4,54.4 -31.4,54.4 h -62.9 l -31.4,-54.4 31.4,-54.4 h 62.9 m 7.6,-13.2 h -78.1 l -39,67.6 39,67.6 h 78.1 l 39,-67.6 z"
   id="path1007"
   inkscape:connector-curvature="0"
   style="fill:#c7c7c6" />
	</g>
	<g
   class="st1"
   id="g1013"
   style="display:inline">
		<path
   class="st4"
   d="m 2325.3,-272.6 31.4,54.4 -31.4,54.4 h -62.9 l -31.4,-54.4 31.4,-54.4 h 62.9 m 7.6,-13.2 h -78.1 l -39,67.6 39,67.6 h 78.1 l 39,-67.6 z"
   id="path1011"
   inkscape:connector-curvature="0"
   style="fill:#c7c7c6" />
	</g>
	<g
   class="st1"
   id="g1017"
   style="display:inline">
		<path
   class="st4"
   d="m 2453.6,-347.4 31.4,54.4 -31.4,54.4 h -62.9 l -31.4,-54.4 31.4,-54.4 h 62.9 m 7.7,-13.2 h -78.1 l -39,67.6 39,67.6 h 78.1 l 39,-67.6 z"
   id="path1015"
   inkscape:connector-curvature="0"
   style="fill:#c7c7c6" />
	</g>
	<g
   class="st1"
   id="g1021"
   style="display:inline">
		<path
   class="st4"
   d="m 2579.8,-272.6 31.4,54.4 -31.4,54.4 H 2517 l -31.4,-54.4 31.4,-54.4 h 62.8 m 7.6,-13.2 h -78.1 l -39,67.6 39,67.6 h 78.1 l 39,-67.6 z"
   id="path1019"
   inkscape:connector-curvature="0"
   style="fill:#c7c7c6" />
	</g>
	<g
   class="st1"
   id="g1025"
   style="display:inline">
		<path
   class="st4"
   d="m 2708.1,-347.4 31.4,54.4 -31.4,54.4 h -62.9 l -31.4,-54.4 31.4,-54.4 h 62.9 m 7.6,-13.2 h -78.1 l -39,67.6 39,67.6 h 78.1 l 39,-67.6 z"
   id="path1023"
   inkscape:connector-curvature="0"
   style="fill:#c7c7c6" />
	</g>
	<g
   class="st1"
   id="g1029"
   style="display:inline">
		<path
   class="st4"
   d="m 2834.3,-272.6 31.4,54.4 -31.4,54.4 h -62.9 l -31.4,-54.4 31.4,-54.4 h 62.9 m 7.6,-13.2 h -78.1 l -39,67.6 39,67.6 h 78.1 l 39,-67.6 z"
   id="path1027"
   inkscape:connector-curvature="0"
   style="fill:#c7c7c6" />
	</g>
	<g
   class="st1"
   id="g1033"
   style="display:inline">
		<path
   class="st4"
   d="m 2962.6,-347.4 31.4,54.4 -31.4,54.4 h -62.9 l -31.4,-54.4 31.4,-54.4 h 62.9 m 7.6,-13.2 h -78.1 l -39,67.6 39,67.6 h 78.1 l 39,-67.6 z"
   id="path1031"
   inkscape:connector-curvature="0"
   style="fill:#c7c7c6" />
	</g>
</g>

<g
   id="Layer_1"
   class="st0"
   style="display:none"
   transform="translate(0,239.8)">
	<line
   class="st7"
   x1="-456.70001"
   y1="60.700001"
   x2="-332.89999"
   y2="204.39999"
   id="line1065"
   style="display:inline;fill:none;stroke:#c7c7c6;stroke-width:13.17599964;stroke-miterlimit:10" />
	<line
   class="st8"
   x1="-420.70001"
   y1="164.89999"
   x2="-513"
   y2="57.700001"
   id="line1067"
   style="display:inline;fill:none;stroke:#091812;stroke-width:7.41599989;stroke-miterlimit:10" />
	<line
   class="st8"
   x1="-435.20001"
   y1="179.60001"
   x2="-527.5"
   y2="72.400002"
   id="line1069"
   style="display:inline;fill:none;stroke:#091812;stroke-width:7.41599989;stroke-miterlimit:10" />
</g>
<style
   id="style1364"
   type="text/css">
	.st0{fill:#AFB8D1;}
	.st1{fill:#909CAF;}
	.st2{fill:#626E7F;}
	.st3{fill:#AFB8D2;}
	.st4{fill:#BCC9CB;}
	.st5{fill:#FEFFFF;}
	.st6{fill:#F7BF21;}
	.st7{fill:#129A68;}
	.st8{fill:#F26B31;}
	.st9{fill:#1F65B0;}
	.st10{fill:#EE3128;}
	.st11{fill:#CF582C;}
</style><style
   id="style1613"
   type="text/css">
	.st0{fill:#939598;}
	.st1{fill:#064F8C;}
</style><style
   id="style1874"
   type="text/css">
	.st0{fill:#909CAF;}
	.st1{fill:#626E7F;}
	.st2{fill:#AFB8D2;}
	.st3{fill:#BCC9CB;}
	.st4{fill:#FEFFFF;}
	.st5{fill:#AFB8D1;}
	.st6{fill:#F7BF21;}
	.st7{fill:#129A68;}
	.st8{fill:#F26B31;}
	.st9{fill:#1F65B0;}
	.st10{fill:#EE3128;}
	.st11{fill:#CF582C;}
</style><g
   id="g2067"
   transform="matrix(0.05818445,0,0,0.05818445,-19.27996,59.839509)"><path
     id="path1876"
     d="m 5739,3107.3 v 0 l -0.1,-812.6 -783.5,-0.4 V 1512.1 H 4170.7 V 728.2 l -644.1,-1.5 -167.7,1.4 c 0,0 -45.3,-171.2 -457.2,-136.3 C 1573.6,729 537.6,1851.6 537.6,3216.2 c 0,1457.2 1181.3,2638.5 2638.5,2638.5 1362.6,0 2483.9,-1032.9 2623.8,-2358.4 22.9,-294.1 -60.9,-389 -60.9,-389 z"
     inkscape:connector-curvature="0" /><g
     id="g1886">
	<defs
   id="defs1879">
		<path
   d="m 3225.3,4190 c -298.6,0 -658.1,-34.3 -922.8,-69.3 -38.9,-290.2 -48.7,-604.5 -48.7,-935.8 0,-1335.2 347.7,-2436.4 789.5,-2539.1 -1340.3,73 -2404.8,1193.7 -2404.8,2565.7 0,1419.1 1139,2569.6 2544,2569.6 1356.8,0 2465.5,-1073 2539.9,-2424.7 -68.8,471.5 -1184,833.6 -2497.1,833.6 z"
   id="path2006"
   inkscape:connector-curvature="0" />
	</defs>
	<use
   id="use1881"
   style="overflow:visible;fill:#afb8d1"
   xlink:href="#SVGID_1_-5"
   x="0"
   y="0"
   width="100%"
   height="100%" />
	<clipPath
   id="SVGID_2_-3">
		<use
   id="use1883"
   style="overflow:visible"
   xlink:href="#SVGID_1_-5"
   x="0"
   y="0"
   width="100%"
   height="100%" />
	</clipPath>
</g><g
     id="g1892">
	<g
   id="g1890">
		<path
   id="path1888"
   d="m 3172.6,5795.8 c -683.5,0 -1326,-268.8 -1809.3,-756.9 C 880.1,4550.7 614,3901.8 614,3211.6 614,1838.6 1676.4,705.2 3032.6,631.3 c 7.7,-0.4 14.2,5 15.3,12.5 1.1,7.5 -3.8,14.6 -11.2,16.3 -436.4,101.4 -778.2,1210.5 -778.2,2524.9 0,263.3 17.7,605.2 59.4,922.8 164.5,21.5 546.6,67.7 897.5,67.7 637,0 1244.5,-85 1710.6,-239.2 465.6,-154.1 739.8,-360.7 772.1,-581.8 1.1,-7.7 8.2,-13.1 15.9,-12.4 7.8,0.8 13.6,7.5 13.1,15.3 -75.4,1367.3 -1197.4,2438.4 -2554.5,2438.4 z M 2938,667.5 C 1643.5,787.5 643.2,1886.7 643.2,3211.6 c 0,1408.8 1134.7,2555 2529.4,2555 1301.8,0 2384.9,-997 2516,-2291.3 -96.6,187.2 -357.7,357.7 -753.4,488.7 -469,155.2 -1079.7,240.7 -1719.7,240.7 -360.7,0 -746.4,-56.7 -904.2,-77.6 -6.5,-0.9 -11.7,-6 -12.6,-12.5 -43.3,-322.4 -65.2,-662.3 -65.2,-929.6 0,-645.3 77.5,-1261.8 225.7,-1736.1 127.5,-408.6 295,-680.4 478.8,-781.4 z"
   inkscape:connector-curvature="0" />
	</g>
</g><g
     id="g1898">
	<g
   id="g1896">
		<path
   id="path1894"
   d="m 4936.8,4096.3 c -10,3.2 -20.6,6.5 -31.8,9.9 -283,750.9 -936.2,1315.8 -1715.2,1518.5 9.3,0.1 18.7,0.2 28.1,0.2 587.1,0 1150.2,-210.9 1585.5,-593.9 370.6,-326.1 622.7,-753.7 725,-1222.8 -138.3,109.6 -338,207.2 -591.6,288.1 z"
   class="st0"
   inkscape:connector-curvature="0"
   style="fill:#909caf" />
	</g>
</g><g
     id="g1904">
	<g
   id="g1902">
		<path
   id="path1900"
   d="M 3301.7,887.5 C 3295,737.8 3177.8,699.4 3121.1,697.7 c -176.5,-5.3 -389.1,244 -545,717.7 -157.1,477.2 -330.3,1285.3 -207.2,2656.2 l 340.4,-329.3 c 0,0 -2.3,-25.8 -4.5,-52.8 0,0 -26.7,-330.8 -29.9,-499.6 -9.8,-512 34.8,-991.3 143.8,-1353.5 109.7,-364.3 310.7,-673.7 467.4,-673.7 54.1,0 54.1,130.4 105.3,177.8 z"
   class="st1"
   inkscape:connector-curvature="0"
   style="fill:#626e7f" />
	</g>
</g><g
     id="g1910">
	<g
   id="g1908">
		<path
   id="path1906"
   d="m 4946.5,3883.1 c 292.9,-102.9 917.3,-382 651.3,-797.3 -16,-24.9 -35.6,-47.4 -59.8,-64.6 h -497.3 c 62.2,58.9 93.8,120.7 93.8,183.7 0,156.5 -194.1,303 -546.6,412.6 -350.4,108.9 -816.2,168.9 -1311.6,168.9 -194.2,0 -385.8,-9.3 -569.4,-27.7 l -0.9,-0.1 -334.4,313.3 c 164.7,21.5 559.9,58.2 888.9,58.2 633.9,-0.1 1232.7,-87.8 1686,-247 z"
   class="st2"
   inkscape:connector-curvature="0"
   style="fill:#afb8d2" />
	</g>
</g><g
     id="g1914">
	<path
   id="path1912"
   d="m 3297.3,1226.2 c -268.5,0 -556,760.1 -556,1891.6 0,173.9 15.3,402.5 29.4,568.7 l 718.7,-709.3 -2.9,-1676.3 c -51.9,-54.9 -137,-74.7 -189.2,-74.7 z"
   class="st3"
   inkscape:connector-curvature="0"
   style="fill:#bcc9cb" />
</g><g
     id="g1922">
	<g
   id="g1920">
		<path
   id="path1916"
   d="m 3332.1,3733.7 c -150.6,0 -363.5,-11.7 -506.9,-28.5 l 729,-704.3 1566.2,-0.9 c 42.1,46 61.6,99.7 59.7,163.5 -3.4,109.7 -159,276.4 -492.6,382.9 -332.6,106.2 -791,172.4 -1290.8,186.3 -19.8,0.7 -41.5,1 -64.6,1 z"
   class="st4"
   inkscape:connector-curvature="0"
   style="fill:#feffff" />
		<path
   id="path1918"
   d="m 3332.1,3748.5 c -148.3,0 -346.3,-11.5 -492.7,-28.6 l -29.4,-3.4 698.8,-730.2 h 6.3 l 1611.7,-0.9 4.4,4.8 c 44.8,49 65.6,105.9 63.5,173.9 -1.9,63 -47.3,135.3 -127.6,203.5 -90.7,76.9 -220.4,143.6 -375.2,193.1 -333.8,106.6 -793.7,173 -1294.8,187 -20.1,0.5 -41.9,0.8 -65,0.8 z m -496.7,-54.6 c 141.7,15.1 359.2,25.1 496.7,25.1 22.8,0 44.4,-0.3 64,-0.8 498.5,-13.9 955.5,-79.9 1286.7,-185.6 151.1,-48.3 277.4,-113.1 365.2,-187.5 72.9,-61.8 115.6,-128.1 117.2,-181.9 1.8,-57.8 -15.1,-106.4 -51.5,-148.4 l -1573.3,0.9 z"
   inkscape:connector-curvature="0" />
	</g>
</g><path
     id="path1924"
     d="m 5672.3,3217.8 c -21.4,280.6 -228.1,483.5 -632,620.4 -706.6,239.6 -1404.4,278.7 -1865.5,269.3 -315.7,-6.4 -566.6,-35.8 -709.6,-56.8 l 312,-300.9 c 147.2,20.2 379.9,35.1 554.7,35.1 23.6,0 45.8,-0.3 65.9,-0.8 504.5,-14.1 967.9,-81.1 1304.9,-188.7 157.7,-50.4 291.2,-119 385.9,-198.4 89.6,-75.1 140.1,-157.4 142.4,-231.8 2.5,-82.7 -26.1,-154 -85.1,-212.1 l -4.3,-4.2 -1615.9,0.9 -2.9,-1648.9 c 0,-9.3 -3.6,-18.2 -10,-25 -56.2,-59.5 -148.8,-114.7 -215.8,-114.7 -154.4,0 -301.3,222.9 -413.5,575.6 -115.4,362.9 -179,853.5 -179,1381.2 0,185.5 17.3,423.3 27.1,542.2 l -385,371.3 c -8.3,-1.6 -12.9,-2.5 -13.3,-2.6 0,0 0,0 0,0 l -20.7,101 c 14,2.9 348.1,70.3 857.4,80.8 43.8,0.9 87.6,1.4 131.3,1.4 254.4,0 506.5,-15.4 751.1,-45.8 358.6,-44.7 702.1,-122.1 1020.9,-230.2 234.4,-79.5 412.3,-184.6 528.9,-312.5 103.1,-113.2 161.3,-247 172.8,-397.7 z m -543.5,-55.7 c -1.3,43.5 -40.9,102 -105.8,156.4 -84.6,70.9 -206,132.9 -351.2,179.3 -328.1,104.8 -781.5,170.1 -1276.3,183.9 -188.1,1.3 -411.8,-5.8 -531.6,-15.3 l 637,-614.2 1595.4,-0.9 c 23.5,32 33.8,67.4 32.5,110.8 z m -2351,-44.2 c 0,-1194.5 304.5,-1852 516.8,-1852 45.8,0 113.4,13.8 155.4,50.6 l 2.9,1645.6 -124.9,123.1 -528.1,509.2 c -9.6,-126.9 -22.1,-320.7 -22.1,-476.5 z"
     inkscape:connector-curvature="0" /><g
     id="g1958">
	<g
   id="g1928">
		<path
   id="path1926"
   d="m 7521.4,3258.9 c 26.8,24.1 48.9,54.3 66.3,90.6 17.3,36.4 26,83.3 26,140.9 0,57.1 -10.4,109.4 -31,156.9 -20.7,47.5 -49.8,88.9 -87.3,124.2 -41.9,39.2 -91.3,68.1 -148.1,86.8 -56.8,18.7 -119,28.1 -186.7,28.1 -69.4,0 -137.6,-8.3 -204.7,-24.8 -67.1,-16.5 -122.2,-34.5 -165.3,-54.1 v -175.3 h 12.6 c 47.5,31.3 103.5,57.3 167.8,78 64.3,20.7 126.4,31 186.3,31 35.2,0 72.7,-5.9 112.4,-17.6 39.7,-11.7 71.9,-29.1 96.5,-52 25.7,-24.6 44.9,-51.7 57.5,-81.4 12.6,-29.6 18.9,-67.1 18.9,-112.4 0,-44.7 -7.1,-81.8 -21.4,-111.2 -14.3,-29.4 -34,-52.4 -59.2,-69.2 -25.2,-17.3 -55.7,-29.2 -91.4,-35.7 -35.8,-6.4 -74.4,-9.6 -115.8,-9.6 h -75.5 v -139.3 h 58.7 c 85,0 152.8,-17.7 203.5,-53.3 50.6,-35.5 75.9,-87.4 75.9,-155.6 0,-30.2 -6.4,-56.6 -19.3,-79.3 -12.9,-22.7 -30.8,-41.2 -53.7,-55.8 -24.1,-14.5 -49.8,-24.6 -77.2,-30.2 -27.4,-5.6 -58.4,-8.4 -93.1,-8.4 -53.1,0 -109.6,9.5 -169.5,28.5 -59.9,19 -116.3,45.9 -169.5,80.5 h -8.4 V 2664 c 39.7,-19.6 92.7,-37.6 159,-54.1 66.3,-16.5 130.5,-24.8 192.5,-24.8 61,0 114.7,5.6 161.1,16.8 46.4,11.2 88.4,29.1 125.8,53.7 40.3,26.8 70.8,59.3 91.4,97.3 20.7,38 31,82.5 31,133.4 0,69.4 -24.5,129.9 -73.4,181.6 -49,51.7 -106.7,84.3 -173.3,97.7 v 11.7 c 26.8,4.5 57.6,13.8 92.3,28.1 34.9,14.4 64.3,32.2 88.3,53.5 z"
   class="st5"
   inkscape:connector-curvature="0"
   style="fill:#afb8d1" />
	</g>
	<g
   id="g1932">
		<path
   id="path1930"
   d="m 8966.2,3237 c 0,113.6 -24.7,216.5 -74.2,308.7 -49.5,92.3 -115.4,163.9 -197.6,214.8 -57.1,35.2 -120.7,60.7 -190.9,76.3 -70.2,15.7 -162.6,23.5 -277.3,23.5 H 7910.7 V 2611.2 h 312.1 c 121.9,0 218.8,8.8 290.7,26.4 71.9,17.6 132.7,41.8 182.5,72.6 85,53.1 151.3,123.9 198.8,212.3 47.6,88.3 71.4,193.2 71.4,314.5 z m -173.7,-2.5 c 0,-97.9 -17.1,-180.4 -51.2,-247.5 -34.1,-67.1 -85,-120 -152.7,-158.6 -49.2,-28 -101.5,-47.4 -156.9,-58.3 -55.4,-10.9 -121.7,-16.4 -198.8,-16.4 h -156.1 v 964 h 156.1 c 80,0 149.8,-5.9 209.3,-17.6 59.6,-11.7 114.2,-33.6 164,-65.4 62.1,-39.7 108.7,-92 139.7,-156.9 31.1,-64.8 46.6,-146 46.6,-243.3 z"
   class="st5"
   inkscape:connector-curvature="0"
   style="fill:#afb8d1" />
	</g>
	<g
   id="g1936">
		<path
   id="path1934"
   d="m 10697.4,3503.8 c 0,48.7 -11.3,96.8 -34,144.3 -22.7,47.5 -54.4,87.8 -95.2,120.8 -44.8,35.8 -96.9,63.8 -156.5,83.9 -59.6,20.1 -131.3,30.2 -215.2,30.2 -90.1,0 -171,-8.4 -242.9,-25.2 -71.9,-16.8 -145,-41.7 -219.4,-74.7 V 3575 h 11.7 c 63.2,52.6 136.2,93.1 219,121.7 82.8,28.5 160.5,42.8 233.2,42.8 102.9,0 183,-19.3 240.4,-57.9 57.3,-38.6 86,-90 86,-154.4 0,-55.4 -13.6,-96.2 -40.7,-122.5 -27.1,-26.3 -68.4,-46.7 -123.8,-61.2 -41.9,-11.2 -87.4,-20.4 -136.3,-27.7 -48.9,-7.3 -100.8,-16.5 -155.6,-27.7 -110.7,-23.5 -192.8,-63.6 -246.2,-120.4 -53.4,-56.8 -80.1,-130.7 -80.1,-221.9 0,-104.6 44.2,-190.3 132.6,-257.1 88.4,-66.8 200.5,-100.3 336.4,-100.3 87.8,0 168.3,8.4 241.6,25.2 73.3,16.8 138.1,37.5 194.6,62.1 V 2872 h -11.7 c -47.5,-40.3 -110.1,-73.7 -187.5,-100.3 -77.5,-26.6 -156.8,-39.9 -237.9,-39.9 -88.9,0 -160.4,18.5 -214.4,55.4 -54,36.9 -81,84.5 -81,142.6 0,52 13.4,92.9 40.3,122.5 26.8,29.7 74.1,52.3 141.8,68 35.8,7.8 86.7,17.3 152.7,28.5 66,11.2 121.9,22.7 167.8,34.4 92.8,24.6 162.8,61.8 209.7,111.6 47.1,49.9 70.6,119.6 70.6,209 z"
   class="st5"
   inkscape:connector-curvature="0"
   style="fill:#afb8d1" />
	</g>
	<g
   id="g1940">
		<path
   id="path1938"
   d="M 11143.7,3860.4 H 10986 V 2555 h 157.7 z"
   class="st5"
   inkscape:connector-curvature="0"
   style="fill:#afb8d1" />
	</g>
	<g
   id="g1944">
		<path
   id="path1942"
   d="m 11658,2766.4 h -177.9 v -163.6 h 177.9 z m -10,1094 h -157.7 v -937.1 h 157.7 z"
   class="st5"
   inkscape:connector-curvature="0"
   style="fill:#afb8d1" />
	</g>
	<g
   id="g1948">
		<path
   id="path1946"
   d="m 12710.4,3801.7 c -52.6,25.2 -102.5,44.8 -149.8,58.7 -47.3,14 -97.5,21 -150.6,21 -67.7,0 -129.8,-9.9 -186.3,-29.8 -56.5,-19.8 -104.9,-49.9 -145.1,-90.2 -40.8,-40.3 -72.4,-91.2 -94.8,-152.7 -22.4,-61.5 -33.6,-133.4 -33.6,-215.6 0,-153.2 42.1,-273.5 126.3,-360.8 84.2,-87.3 195.3,-130.9 333.5,-130.9 53.7,0 106.4,7.6 158.2,22.7 51.7,15.1 99.1,33.6 142.2,55.4 v 175.3 h -8.4 c -48.1,-37.5 -97.7,-66.3 -148.9,-86.4 -51.2,-20.1 -101.1,-30.2 -149.8,-30.2 -89.5,0 -160.1,30.1 -211.8,90.2 -51.7,60.1 -77.6,148.4 -77.6,264.7 0,113 25.3,199.8 75.9,260.5 50.6,60.7 121.8,91 213.5,91 31.9,0 64.3,-4.2 97.3,-12.6 33,-8.4 62.6,-19.3 88.9,-32.7 22.9,-11.7 44.5,-24.2 64.6,-37.3 20.1,-13.1 36.1,-24.5 47.8,-34 h 8.4 v 173.7 z"
   class="st5"
   inkscape:connector-curvature="0"
   style="fill:#afb8d1" />
	</g>
	<g
   id="g1952">
		<path
   id="path1950"
   d="m 13770.6,3408.2 h -690.5 c 0,57.6 8.7,107.8 26,150.6 17.3,42.8 41.1,77.9 71.3,105.3 29.1,26.8 63.6,47 103.6,60.4 40,13.4 84,20.1 132.1,20.1 63.8,0 127.9,-12.7 192.6,-38.2 64.6,-25.4 110.6,-50.5 138,-75.1 h 8.4 v 172 c -53.1,22.4 -107.4,41.1 -162.8,56.2 -55.4,15.1 -113.6,22.7 -174.5,22.7 -155.5,0 -276.9,-42.1 -364.1,-126.3 -87.3,-84.2 -130.9,-203.7 -130.9,-358.7 0,-153.2 41.8,-274.9 125.4,-365 83.6,-90 193.7,-135.1 330.1,-135.1 126.4,0 223.9,36.9 292.4,110.7 68.5,73.8 102.8,178.7 102.8,314.6 v 85.8 z m -153.5,-120.8 c -0.6,-82.8 -21.4,-146.8 -62.5,-192.1 -41.1,-45.3 -103.6,-68 -187.5,-68 -84.5,0 -151.7,24.9 -201.8,74.7 -50.1,49.8 -78.4,111.6 -85.2,185.4 z"
   class="st5"
   inkscape:connector-curvature="0"
   style="fill:#afb8d1" />
	</g>
	<g
   id="g1956">
		<path
   id="path1954"
   d="m 14623.2,3095.3 h -8.4 c -23.5,-5.6 -46.3,-9.6 -68.4,-12.2 -22.1,-2.5 -48.2,-3.8 -78.4,-3.8 -48.7,0 -95.6,10.8 -140.9,32.3 -45.3,21.5 -88.9,49.4 -130.9,83.5 v 665.3 h -157.7 v -937.1 h 157.7 v 138.4 c 62.6,-50.3 117.9,-86 165.7,-107 47.8,-21 96.6,-31.5 146.4,-31.5 27.4,0 47.3,0.7 59.6,2.1 12.3,1.4 30.8,4.1 55.4,8 v 162 z"
   class="st5"
   inkscape:connector-curvature="0"
   style="fill:#afb8d1" />
	</g>
</g><g
     id="g1964">
	<g
   id="g1962">
		<rect
   id="rect1960"
   height="681.59998"
   width="681.59998"
   class="st6"
   y="830.59998"
   x="3386.2"
   style="fill:#f7bf21" />
	</g>
</g><g
     id="g1970">
	<g
   id="g1968">
		<rect
   id="rect1966"
   height="681.59998"
   width="681.59998"
   class="st7"
   y="1612.8"
   x="3386.2"
   style="fill:#129a68" />
	</g>
</g><g
     id="g1974">
	<rect
   id="rect1972"
   height="681.59998"
   width="681.59998"
   class="st8"
   y="1612.8"
   x="4170.7998"
   style="fill:#f26b31" />
</g><g
     id="g1980">
	<g
   id="g1978">
		<rect
   id="rect1976"
   height="681.59998"
   width="681.59998"
   class="st9"
   y="2398.1001"
   x="4955.5"
   style="fill:#1f65b0" />
	</g>
</g><g
     id="g1986">
	<g
   id="g1984">
		<rect
   id="rect1982"
   height="681.59998"
   width="681.59998"
   class="st10"
   y="2398.1001"
   x="3386.2"
   style="fill:#ee3128" />
	</g>
</g><g
     id="g1992">
	<g
   id="g1990">
		<rect
   id="rect1988"
   height="681.59998"
   width="681.59998"
   class="st11"
   y="2398.1001"
   x="4170.7998"
   style="fill:#cf582c" />
	</g>
</g><path
     id="path1994"
     d="m 5739,3107.3 v 0 -812.5 l -783.5,-0.5 v -782.2 h -784.7 v -784 h -811.7 c 0,0 -5.3,-20.1 -28.9,-45.2 0,0 -41.5,11.1 -41.5,34.7 0,23.2 0,2446 0,2446 l 43.3,15.6 H 5696.5 Z M 4067.4,3078 H 3390 v -681 h 677.4 z m 0,-782.2 H 3390 v -684.1 h 677.4 z m 0,-785.3 H 3390 V 829.3 h 677.4 z M 4852.5,3078 h -683.9 v -681 h 683.9 z m 0,-782.2 h -683.9 v -684.1 h 683.9 z M 5636.7,3078 H 4956 v -681 h 680.7 z"
     inkscape:connector-curvature="0" /></g></svg>